<svg width="20" height="21" viewBox="0 0 20 21" fill="none" xmlns="http://www.w3.org/2000/svg">
<g clip-path="url(#clip0_460_9)">
<mask id="path-1-outside-1_460_9" maskUnits="userSpaceOnUse" x="0.476326" y="-0.191284" width="19" height="21" fill="black">
<rect fill="white" x="0.476326" y="-0.191284" width="19" height="21"/>
<path d="M18.3389 18.2534L15.9352 15.8496C15.7472 15.6617 15.4696 15.6175 15.2389 15.7161L13.5748 14.0521C14.1712 13.231 14.5712 12.2868 14.7458 11.2741C14.9662 9.99618 14.8157 8.70028 14.3112 7.51504C14.8028 7.05934 15.3879 6.80403 15.8955 6.71485C16.0075 6.69516 16.0893 6.59782 16.0893 6.48403C16.0893 6.37024 16.0075 6.2729 15.8955 6.25321C14.9256 6.08286 13.6719 5.30715 13.3303 3.6818C13.3075 3.57333 13.2118 3.49563 13.1009 3.49563C12.99 3.49563 12.8943 3.57333 12.8715 3.6818C12.7688 4.17059 12.5832 4.58204 12.348 4.92379C11.1041 3.92118 9.54883 3.39989 7.94015 3.45262C6.23863 3.50825 4.63832 4.20219 3.4339 5.40661C2.17156 6.66895 1.47633 8.34735 1.47633 10.1326C1.47633 11.9178 2.17152 13.5962 3.4339 14.8585C4.69625 16.1209 6.37469 16.8161 8.15992 16.8161C9.5875 16.8161 10.9465 16.3711 12.0794 15.5475L13.7435 17.2115C13.6448 17.4422 13.689 17.7198 13.877 17.9077L16.2807 20.3115C16.4039 20.4347 16.5658 20.4963 16.7277 20.4963C16.8896 20.4963 17.0516 20.4347 17.1748 20.3115L18.3388 19.1474C18.4579 19.0283 18.5236 18.8695 18.5236 18.7004C18.5236 18.5311 18.4579 18.3724 18.3388 18.2533L18.3389 18.2534ZM13.1009 4.5195C13.5235 5.52711 14.2918 6.15813 15.0503 6.48403C14.2918 6.80993 13.5236 7.44094 13.1009 8.44856C12.6784 7.44094 11.91 6.80993 11.1516 6.48403C11.91 6.15813 12.6783 5.52711 13.1009 4.5195ZM10.3064 6.71485C11.2756 6.88512 12.5283 7.65993 12.8709 9.28317C13.1477 10.827 12.6521 12.4095 11.5445 13.5172C9.67828 15.3834 6.64168 15.3834 4.77539 13.5172C2.90914 11.6509 2.90914 8.61426 4.77539 6.74801C6.39019 5.13329 8.9057 4.8952 10.7811 6.12665C10.6189 6.18446 10.4591 6.22637 10.3063 6.25321C10.1943 6.2729 10.1125 6.37024 10.1125 6.48403C10.1125 6.59782 10.1943 6.69516 10.3064 6.71485ZM8.15996 16.3474C6.49992 16.3474 4.93922 15.7009 3.76543 14.5271C2.5916 13.3533 1.94512 11.7926 1.94512 10.1326C1.94512 8.47254 2.59156 6.91188 3.76543 5.73801C6.0089 3.49454 9.60547 3.31586 12.0546 5.28934C11.8168 5.5443 11.5501 5.74665 11.2764 5.90051C9.19625 4.36426 6.28613 4.5743 4.44394 6.41657C2.39492 8.46555 2.39492 11.7996 4.44394 13.8486C5.46847 14.8731 6.81422 15.3854 8.15996 15.3853C9.5057 15.3853 10.8515 14.8731 11.876 13.8486C13.0812 12.6433 13.626 10.9261 13.3397 9.24571C13.4598 8.70352 13.6817 8.25696 13.9605 7.89747C14.8336 10.1693 14.2903 12.7914 12.5545 14.5272C11.3807 15.701 9.82004 16.3474 8.16 16.3474L8.15996 16.3474ZM12.4514 15.2565C12.601 15.1308 12.7461 14.9984 12.8859 14.8586C13.0256 14.7189 13.1582 14.5738 13.284 14.4241L14.8753 16.0154L14.0428 16.8479L12.4513 15.2565H12.4514ZM18.0074 18.8161L16.8434 19.9801C16.7796 20.0439 16.6759 20.0438 16.6122 19.9801L14.2085 17.5764C14.1458 17.5137 14.1458 17.4078 14.2085 17.3451L15.3725 16.1811C15.4038 16.1497 15.446 16.1341 15.4881 16.1341C15.5302 16.1341 15.5724 16.1497 15.6037 16.1811L18.0074 18.5848C18.038 18.6154 18.0548 18.6564 18.0548 18.7004C18.0548 18.7444 18.038 18.7855 18.0074 18.8161V18.8161ZM14.0313 2.03665C14.0313 1.90723 14.1363 1.80227 14.2657 1.80227H15.0248V1.04313C15.0248 0.913716 15.1298 0.808755 15.2592 0.808755C15.3886 0.808755 15.4936 0.913716 15.4936 1.04313V1.80231H16.2528C16.3822 1.80231 16.4871 1.90727 16.4871 2.03668C16.4871 2.1661 16.3822 2.27106 16.2528 2.27106H15.4936V3.0302C15.4936 3.15961 15.3886 3.26458 15.2592 3.26458C15.1298 3.26458 15.0248 3.15961 15.0248 3.0302V2.27106H14.2657C14.1363 2.27106 14.0313 2.16606 14.0313 2.03665ZM3.18957 2.03665C3.18957 1.90723 3.29453 1.80227 3.42394 1.80227H4.18308V1.04309C4.18308 0.913677 4.28804 0.808716 4.41746 0.808716C4.54687 0.808716 4.65183 0.913677 4.65183 1.04309V1.80227H5.41101C5.54043 1.80227 5.64539 1.90723 5.64539 2.03665C5.64539 2.16606 5.54043 2.27102 5.41101 2.27102H4.65183V3.03016C4.65183 3.15958 4.54687 3.26454 4.41746 3.26454C4.28804 3.26454 4.18308 3.15958 4.18308 3.03016V2.27102H3.42394C3.29453 2.27102 3.18957 2.16606 3.18957 2.03665ZM16.4445 10.012C16.5739 10.012 16.6789 10.117 16.6789 10.2464V11.0056H17.438C17.5675 11.0056 17.6724 11.1105 17.6724 11.2399C17.6724 11.3693 17.5675 11.4743 17.438 11.4743H16.6789V12.2335C16.6789 12.3629 16.5739 12.4679 16.4445 12.4679C16.3151 12.4679 16.2101 12.3629 16.2101 12.2335V11.4743H15.451C15.3216 11.4743 15.2166 11.3693 15.2166 11.2399C15.2166 11.1105 15.3216 11.0056 15.451 11.0056H16.2101V10.2464C16.2101 10.117 16.3151 10.012 16.4445 10.012ZM5.88051 7.77571L4.39812 9.43145C4.38914 9.44149 4.38144 9.45231 4.37445 9.46348C4.37219 9.46708 4.37035 9.47075 4.36832 9.47442C4.36394 9.48235 4.36 9.49036 4.35656 9.49868C4.35484 9.50286 4.35316 9.50704 4.35168 9.51129C4.34863 9.52016 4.34621 9.52915 4.34426 9.53829C4.34351 9.54172 4.3425 9.54508 4.34191 9.54856C4.33976 9.5611 4.33859 9.57375 4.33851 9.58649C4.33851 9.58899 4.3389 9.59145 4.33894 9.59395C4.33922 9.60418 4.34008 9.61438 4.34168 9.62458C4.34238 9.62895 4.3434 9.63321 4.34433 9.63758C4.34613 9.6459 4.3484 9.65411 4.35113 9.66227C4.35265 9.66684 4.35422 9.67137 4.35605 9.67586C4.35707 9.67836 4.35769 9.68094 4.35879 9.68344C4.36148 9.6895 4.36496 9.69504 4.36812 9.70083C4.36996 9.70418 4.37152 9.70762 4.37355 9.7109C4.38054 9.72219 4.38836 9.73282 4.39703 9.74262C4.39746 9.74309 4.39773 9.74368 4.39816 9.74415L7.98535 13.7508C7.99097 13.7571 7.99687 13.763 8.00308 13.7686C8.005 13.7703 8.00711 13.7718 8.00906 13.7734C8.01097 13.775 8.01293 13.7766 8.01492 13.7782C8.01742 13.7801 8.01976 13.7823 8.0223 13.7841C8.02636 13.7871 8.03066 13.7897 8.03492 13.7923C8.03761 13.794 8.04019 13.7959 8.04293 13.7975C8.04355 13.7978 8.04422 13.7982 8.04484 13.7985C8.04496 13.7986 8.04504 13.7987 8.04515 13.7988C8.04593 13.7992 8.04676 13.7995 8.04754 13.7999C8.05039 13.8015 8.05332 13.8028 8.05621 13.8043C8.0591 13.8057 8.06187 13.8073 8.0648 13.8086C8.06648 13.8093 8.0682 13.8099 8.06988 13.8106C8.07273 13.8118 8.07558 13.8128 8.07844 13.8138C8.08156 13.815 8.08457 13.8163 8.08773 13.8173C8.09047 13.8182 8.09324 13.8188 8.09597 13.8196C8.09918 13.8205 8.10238 13.8214 8.10562 13.8222C8.10754 13.8227 8.10941 13.8233 8.11136 13.8237C8.11543 13.8245 8.11957 13.825 8.12371 13.8257C8.12672 13.8261 8.12969 13.8268 8.13269 13.8271C8.13367 13.8272 8.13461 13.8274 8.13555 13.8275C8.14226 13.8282 8.14902 13.8284 8.15578 13.8286C8.15699 13.8286 8.15816 13.8288 8.15933 13.8288H8.15984H8.16004C8.16004 13.8288 8.16039 13.8288 8.16054 13.8288C8.16176 13.8288 8.16293 13.8286 8.16414 13.8286C8.1709 13.8285 8.17765 13.8282 8.18433 13.8275C8.18531 13.8274 8.18625 13.8272 8.18719 13.8272C8.19019 13.8268 8.19312 13.8262 8.19613 13.8257H8.19633C8.20039 13.8251 8.20449 13.8246 8.20851 13.8238C8.21047 13.8233 8.21234 13.8227 8.21429 13.8223C8.2175 13.8215 8.2207 13.8206 8.2239 13.8197C8.22664 13.8189 8.22945 13.8183 8.23219 13.8174C8.23535 13.8164 8.2384 13.815 8.24152 13.8139C8.24437 13.8129 8.24722 13.8118 8.25004 13.8107C8.25172 13.81 8.25343 13.8094 8.25511 13.8087C8.25804 13.8074 8.26078 13.8058 8.26367 13.8044C8.2666 13.8029 8.26957 13.8015 8.27246 13.8C8.27324 13.7995 8.27402 13.7993 8.2748 13.7988C8.27492 13.7988 8.275 13.7987 8.27512 13.7986C8.27574 13.7982 8.2764 13.7979 8.27703 13.7975C8.27965 13.796 8.28207 13.7943 8.28461 13.7927C8.28898 13.7899 8.29344 13.7872 8.29765 13.7841C8.30019 13.7823 8.30254 13.7802 8.305 13.7782C8.30695 13.7766 8.3089 13.7751 8.31082 13.7735C8.31281 13.7718 8.31492 13.7704 8.31683 13.7686C8.32301 13.763 8.32894 13.7571 8.33453 13.7509L11.9217 9.74422C11.9221 9.74375 11.9224 9.74321 11.9228 9.74274C11.9315 9.7329 11.9393 9.72227 11.9463 9.71094C11.9483 9.70778 11.9498 9.70446 11.9516 9.70122C11.9548 9.69536 11.9583 9.68973 11.9611 9.68356C11.9622 9.68106 11.9628 9.6784 11.9638 9.67586C11.9656 9.67145 11.9671 9.66704 11.9686 9.66254C11.9714 9.6543 11.9737 9.64598 11.9755 9.63758C11.9764 9.63333 11.9774 9.62911 11.9781 9.62481C11.9798 9.61454 11.9806 9.60422 11.9809 9.59387C11.981 9.59145 11.9813 9.58903 11.9813 9.58661C11.9812 9.57383 11.9801 9.56118 11.9779 9.5486C11.9773 9.54516 11.9763 9.5418 11.9756 9.5384C11.9736 9.52926 11.9712 9.52024 11.9681 9.51137C11.9666 9.50711 11.965 9.50293 11.9632 9.49875C11.9598 9.49047 11.9559 9.48243 11.9515 9.4745C11.9495 9.47082 11.9476 9.46715 11.9453 9.46356C11.9384 9.45239 11.9307 9.44157 11.9217 9.43153L10.4393 7.77579C10.3948 7.72614 10.3313 7.69774 10.2647 7.69774H6.05504C5.98836 7.69774 5.92488 7.72614 5.88043 7.77579L5.88051 7.77571ZM5.09719 9.82215H6.77453L7.62984 12.6509L5.09719 9.82215ZM8.15996 12.7846L7.26426 9.82215H9.0557L8.15996 12.7846ZM8.69008 12.6509L9.54539 9.82215H11.2227L8.69008 12.6509ZM10.16 8.16641L11.2227 9.3534H9.55621L9.27144 8.16641H10.16ZM7.53051 8.16641H8.78937L9.07414 9.3534H7.24578L7.53054 8.16641H7.53051ZM7.04847 8.16641L6.76371 9.3534H5.09719L6.15988 8.16641H7.04847Z"/>
</mask>
<path d="M18.3389 18.2534L15.9352 15.8496C15.7472 15.6617 15.4696 15.6175 15.2389 15.7161L13.5748 14.0521C14.1712 13.231 14.5712 12.2868 14.7458 11.2741C14.9662 9.99618 14.8157 8.70028 14.3112 7.51504C14.8028 7.05934 15.3879 6.80403 15.8955 6.71485C16.0075 6.69516 16.0893 6.59782 16.0893 6.48403C16.0893 6.37024 16.0075 6.2729 15.8955 6.25321C14.9256 6.08286 13.6719 5.30715 13.3303 3.6818C13.3075 3.57333 13.2118 3.49563 13.1009 3.49563C12.99 3.49563 12.8943 3.57333 12.8715 3.6818C12.7688 4.17059 12.5832 4.58204 12.348 4.92379C11.1041 3.92118 9.54883 3.39989 7.94015 3.45262C6.23863 3.50825 4.63832 4.20219 3.4339 5.40661C2.17156 6.66895 1.47633 8.34735 1.47633 10.1326C1.47633 11.9178 2.17152 13.5962 3.4339 14.8585C4.69625 16.1209 6.37469 16.8161 8.15992 16.8161C9.5875 16.8161 10.9465 16.3711 12.0794 15.5475L13.7435 17.2115C13.6448 17.4422 13.689 17.7198 13.877 17.9077L16.2807 20.3115C16.4039 20.4347 16.5658 20.4963 16.7277 20.4963C16.8896 20.4963 17.0516 20.4347 17.1748 20.3115L18.3388 19.1474C18.4579 19.0283 18.5236 18.8695 18.5236 18.7004C18.5236 18.5311 18.4579 18.3724 18.3388 18.2533L18.3389 18.2534ZM13.1009 4.5195C13.5235 5.52711 14.2918 6.15813 15.0503 6.48403C14.2918 6.80993 13.5236 7.44094 13.1009 8.44856C12.6784 7.44094 11.91 6.80993 11.1516 6.48403C11.91 6.15813 12.6783 5.52711 13.1009 4.5195ZM10.3064 6.71485C11.2756 6.88512 12.5283 7.65993 12.8709 9.28317C13.1477 10.827 12.6521 12.4095 11.5445 13.5172C9.67828 15.3834 6.64168 15.3834 4.77539 13.5172C2.90914 11.6509 2.90914 8.61426 4.77539 6.74801C6.39019 5.13329 8.9057 4.8952 10.7811 6.12665C10.6189 6.18446 10.4591 6.22637 10.3063 6.25321C10.1943 6.2729 10.1125 6.37024 10.1125 6.48403C10.1125 6.59782 10.1943 6.69516 10.3064 6.71485ZM8.15996 16.3474C6.49992 16.3474 4.93922 15.7009 3.76543 14.5271C2.5916 13.3533 1.94512 11.7926 1.94512 10.1326C1.94512 8.47254 2.59156 6.91188 3.76543 5.73801C6.0089 3.49454 9.60547 3.31586 12.0546 5.28934C11.8168 5.5443 11.5501 5.74665 11.2764 5.90051C9.19625 4.36426 6.28613 4.5743 4.44394 6.41657C2.39492 8.46555 2.39492 11.7996 4.44394 13.8486C5.46847 14.8731 6.81422 15.3854 8.15996 15.3853C9.5057 15.3853 10.8515 14.8731 11.876 13.8486C13.0812 12.6433 13.626 10.9261 13.3397 9.24571C13.4598 8.70352 13.6817 8.25696 13.9605 7.89747C14.8336 10.1693 14.2903 12.7914 12.5545 14.5272C11.3807 15.701 9.82004 16.3474 8.16 16.3474L8.15996 16.3474ZM12.4514 15.2565C12.601 15.1308 12.7461 14.9984 12.8859 14.8586C13.0256 14.7189 13.1582 14.5738 13.284 14.4241L14.8753 16.0154L14.0428 16.8479L12.4513 15.2565H12.4514ZM18.0074 18.8161L16.8434 19.9801C16.7796 20.0439 16.6759 20.0438 16.6122 19.9801L14.2085 17.5764C14.1458 17.5137 14.1458 17.4078 14.2085 17.3451L15.3725 16.1811C15.4038 16.1497 15.446 16.1341 15.4881 16.1341C15.5302 16.1341 15.5724 16.1497 15.6037 16.1811L18.0074 18.5848C18.038 18.6154 18.0548 18.6564 18.0548 18.7004C18.0548 18.7444 18.038 18.7855 18.0074 18.8161V18.8161ZM14.0313 2.03665C14.0313 1.90723 14.1363 1.80227 14.2657 1.80227H15.0248V1.04313C15.0248 0.913716 15.1298 0.808755 15.2592 0.808755C15.3886 0.808755 15.4936 0.913716 15.4936 1.04313V1.80231H16.2528C16.3822 1.80231 16.4871 1.90727 16.4871 2.03668C16.4871 2.1661 16.3822 2.27106 16.2528 2.27106H15.4936V3.0302C15.4936 3.15961 15.3886 3.26458 15.2592 3.26458C15.1298 3.26458 15.0248 3.15961 15.0248 3.0302V2.27106H14.2657C14.1363 2.27106 14.0313 2.16606 14.0313 2.03665ZM3.18957 2.03665C3.18957 1.90723 3.29453 1.80227 3.42394 1.80227H4.18308V1.04309C4.18308 0.913677 4.28804 0.808716 4.41746 0.808716C4.54687 0.808716 4.65183 0.913677 4.65183 1.04309V1.80227H5.41101C5.54043 1.80227 5.64539 1.90723 5.64539 2.03665C5.64539 2.16606 5.54043 2.27102 5.41101 2.27102H4.65183V3.03016C4.65183 3.15958 4.54687 3.26454 4.41746 3.26454C4.28804 3.26454 4.18308 3.15958 4.18308 3.03016V2.27102H3.42394C3.29453 2.27102 3.18957 2.16606 3.18957 2.03665ZM16.4445 10.012C16.5739 10.012 16.6789 10.117 16.6789 10.2464V11.0056H17.438C17.5675 11.0056 17.6724 11.1105 17.6724 11.2399C17.6724 11.3693 17.5675 11.4743 17.438 11.4743H16.6789V12.2335C16.6789 12.3629 16.5739 12.4679 16.4445 12.4679C16.3151 12.4679 16.2101 12.3629 16.2101 12.2335V11.4743H15.451C15.3216 11.4743 15.2166 11.3693 15.2166 11.2399C15.2166 11.1105 15.3216 11.0056 15.451 11.0056H16.2101V10.2464C16.2101 10.117 16.3151 10.012 16.4445 10.012ZM5.88051 7.77571L4.39812 9.43145C4.38914 9.44149 4.38144 9.45231 4.37445 9.46348C4.37219 9.46708 4.37035 9.47075 4.36832 9.47442C4.36394 9.48235 4.36 9.49036 4.35656 9.49868C4.35484 9.50286 4.35316 9.50704 4.35168 9.51129C4.34863 9.52016 4.34621 9.52915 4.34426 9.53829C4.34351 9.54172 4.3425 9.54508 4.34191 9.54856C4.33976 9.5611 4.33859 9.57375 4.33851 9.58649C4.33851 9.58899 4.3389 9.59145 4.33894 9.59395C4.33922 9.60418 4.34008 9.61438 4.34168 9.62458C4.34238 9.62895 4.3434 9.63321 4.34433 9.63758C4.34613 9.6459 4.3484 9.65411 4.35113 9.66227C4.35265 9.66684 4.35422 9.67137 4.35605 9.67586C4.35707 9.67836 4.35769 9.68094 4.35879 9.68344C4.36148 9.6895 4.36496 9.69504 4.36812 9.70083C4.36996 9.70418 4.37152 9.70762 4.37355 9.7109C4.38054 9.72219 4.38836 9.73282 4.39703 9.74262C4.39746 9.74309 4.39773 9.74368 4.39816 9.74415L7.98535 13.7508C7.99097 13.7571 7.99687 13.763 8.00308 13.7686C8.005 13.7703 8.00711 13.7718 8.00906 13.7734C8.01097 13.775 8.01293 13.7766 8.01492 13.7782C8.01742 13.7801 8.01976 13.7823 8.0223 13.7841C8.02636 13.7871 8.03066 13.7897 8.03492 13.7923C8.03761 13.794 8.04019 13.7959 8.04293 13.7975C8.04355 13.7978 8.04422 13.7982 8.04484 13.7985C8.04496 13.7986 8.04504 13.7987 8.04515 13.7988C8.04593 13.7992 8.04676 13.7995 8.04754 13.7999C8.05039 13.8015 8.05332 13.8028 8.05621 13.8043C8.0591 13.8057 8.06187 13.8073 8.0648 13.8086C8.06648 13.8093 8.0682 13.8099 8.06988 13.8106C8.07273 13.8118 8.07558 13.8128 8.07844 13.8138C8.08156 13.815 8.08457 13.8163 8.08773 13.8173C8.09047 13.8182 8.09324 13.8188 8.09597 13.8196C8.09918 13.8205 8.10238 13.8214 8.10562 13.8222C8.10754 13.8227 8.10941 13.8233 8.11136 13.8237C8.11543 13.8245 8.11957 13.825 8.12371 13.8257C8.12672 13.8261 8.12969 13.8268 8.13269 13.8271C8.13367 13.8272 8.13461 13.8274 8.13555 13.8275C8.14226 13.8282 8.14902 13.8284 8.15578 13.8286C8.15699 13.8286 8.15816 13.8288 8.15933 13.8288H8.15984H8.16004C8.16004 13.8288 8.16039 13.8288 8.16054 13.8288C8.16176 13.8288 8.16293 13.8286 8.16414 13.8286C8.1709 13.8285 8.17765 13.8282 8.18433 13.8275C8.18531 13.8274 8.18625 13.8272 8.18719 13.8272C8.19019 13.8268 8.19312 13.8262 8.19613 13.8257H8.19633C8.20039 13.8251 8.20449 13.8246 8.20851 13.8238C8.21047 13.8233 8.21234 13.8227 8.21429 13.8223C8.2175 13.8215 8.2207 13.8206 8.2239 13.8197C8.22664 13.8189 8.22945 13.8183 8.23219 13.8174C8.23535 13.8164 8.2384 13.815 8.24152 13.8139C8.24437 13.8129 8.24722 13.8118 8.25004 13.8107C8.25172 13.81 8.25343 13.8094 8.25511 13.8087C8.25804 13.8074 8.26078 13.8058 8.26367 13.8044C8.2666 13.8029 8.26957 13.8015 8.27246 13.8C8.27324 13.7995 8.27402 13.7993 8.2748 13.7988C8.27492 13.7988 8.275 13.7987 8.27512 13.7986C8.27574 13.7982 8.2764 13.7979 8.27703 13.7975C8.27965 13.796 8.28207 13.7943 8.28461 13.7927C8.28898 13.7899 8.29344 13.7872 8.29765 13.7841C8.30019 13.7823 8.30254 13.7802 8.305 13.7782C8.30695 13.7766 8.3089 13.7751 8.31082 13.7735C8.31281 13.7718 8.31492 13.7704 8.31683 13.7686C8.32301 13.763 8.32894 13.7571 8.33453 13.7509L11.9217 9.74422C11.9221 9.74375 11.9224 9.74321 11.9228 9.74274C11.9315 9.7329 11.9393 9.72227 11.9463 9.71094C11.9483 9.70778 11.9498 9.70446 11.9516 9.70122C11.9548 9.69536 11.9583 9.68973 11.9611 9.68356C11.9622 9.68106 11.9628 9.6784 11.9638 9.67586C11.9656 9.67145 11.9671 9.66704 11.9686 9.66254C11.9714 9.6543 11.9737 9.64598 11.9755 9.63758C11.9764 9.63333 11.9774 9.62911 11.9781 9.62481C11.9798 9.61454 11.9806 9.60422 11.9809 9.59387C11.981 9.59145 11.9813 9.58903 11.9813 9.58661C11.9812 9.57383 11.9801 9.56118 11.9779 9.5486C11.9773 9.54516 11.9763 9.5418 11.9756 9.5384C11.9736 9.52926 11.9712 9.52024 11.9681 9.51137C11.9666 9.50711 11.965 9.50293 11.9632 9.49875C11.9598 9.49047 11.9559 9.48243 11.9515 9.4745C11.9495 9.47082 11.9476 9.46715 11.9453 9.46356C11.9384 9.45239 11.9307 9.44157 11.9217 9.43153L10.4393 7.77579C10.3948 7.72614 10.3313 7.69774 10.2647 7.69774H6.05504C5.98836 7.69774 5.92488 7.72614 5.88043 7.77579L5.88051 7.77571ZM5.09719 9.82215H6.77453L7.62984 12.6509L5.09719 9.82215ZM8.15996 12.7846L7.26426 9.82215H9.0557L8.15996 12.7846ZM8.69008 12.6509L9.54539 9.82215H11.2227L8.69008 12.6509ZM10.16 8.16641L11.2227 9.3534H9.55621L9.27144 8.16641H10.16ZM7.53051 8.16641H8.78937L9.07414 9.3534H7.24578L7.53054 8.16641H7.53051ZM7.04847 8.16641L6.76371 9.3534H5.09719L6.15988 8.16641H7.04847Z" fill="black"/>
<path d="M18.3389 18.2534L15.9352 15.8496C15.7472 15.6617 15.4696 15.6175 15.2389 15.7161L13.5748 14.0521C14.1712 13.231 14.5712 12.2868 14.7458 11.2741C14.9662 9.99618 14.8157 8.70028 14.3112 7.51504C14.8028 7.05934 15.3879 6.80403 15.8955 6.71485C16.0075 6.69516 16.0893 6.59782 16.0893 6.48403C16.0893 6.37024 16.0075 6.2729 15.8955 6.25321C14.9256 6.08286 13.6719 5.30715 13.3303 3.6818C13.3075 3.57333 13.2118 3.49563 13.1009 3.49563C12.99 3.49563 12.8943 3.57333 12.8715 3.6818C12.7688 4.17059 12.5832 4.58204 12.348 4.92379C11.1041 3.92118 9.54883 3.39989 7.94015 3.45262C6.23863 3.50825 4.63832 4.20219 3.4339 5.40661C2.17156 6.66895 1.47633 8.34735 1.47633 10.1326C1.47633 11.9178 2.17152 13.5962 3.4339 14.8585C4.69625 16.1209 6.37469 16.8161 8.15992 16.8161C9.5875 16.8161 10.9465 16.3711 12.0794 15.5475L13.7435 17.2115C13.6448 17.4422 13.689 17.7198 13.877 17.9077L16.2807 20.3115C16.4039 20.4347 16.5658 20.4963 16.7277 20.4963C16.8896 20.4963 17.0516 20.4347 17.1748 20.3115L18.3388 19.1474C18.4579 19.0283 18.5236 18.8695 18.5236 18.7004C18.5236 18.5311 18.4579 18.3724 18.3388 18.2533L18.3389 18.2534ZM13.1009 4.5195C13.5235 5.52711 14.2918 6.15813 15.0503 6.48403C14.2918 6.80993 13.5236 7.44094 13.1009 8.44856C12.6784 7.44094 11.91 6.80993 11.1516 6.48403C11.91 6.15813 12.6783 5.52711 13.1009 4.5195ZM10.3064 6.71485C11.2756 6.88512 12.5283 7.65993 12.8709 9.28317C13.1477 10.827 12.6521 12.4095 11.5445 13.5172C9.67828 15.3834 6.64168 15.3834 4.77539 13.5172C2.90914 11.6509 2.90914 8.61426 4.77539 6.74801C6.39019 5.13329 8.9057 4.8952 10.7811 6.12665C10.6189 6.18446 10.4591 6.22637 10.3063 6.25321C10.1943 6.2729 10.1125 6.37024 10.1125 6.48403C10.1125 6.59782 10.1943 6.69516 10.3064 6.71485ZM8.15996 16.3474C6.49992 16.3474 4.93922 15.7009 3.76543 14.5271C2.5916 13.3533 1.94512 11.7926 1.94512 10.1326C1.94512 8.47254 2.59156 6.91188 3.76543 5.73801C6.0089 3.49454 9.60547 3.31586 12.0546 5.28934C11.8168 5.5443 11.5501 5.74665 11.2764 5.90051C9.19625 4.36426 6.28613 4.5743 4.44394 6.41657C2.39492 8.46555 2.39492 11.7996 4.44394 13.8486C5.46847 14.8731 6.81422 15.3854 8.15996 15.3853C9.5057 15.3853 10.8515 14.8731 11.876 13.8486C13.0812 12.6433 13.626 10.9261 13.3397 9.24571C13.4598 8.70352 13.6817 8.25696 13.9605 7.89747C14.8336 10.1693 14.2903 12.7914 12.5545 14.5272C11.3807 15.701 9.82004 16.3474 8.16 16.3474L8.15996 16.3474ZM12.4514 15.2565C12.601 15.1308 12.7461 14.9984 12.8859 14.8586C13.0256 14.7189 13.1582 14.5738 13.284 14.4241L14.8753 16.0154L14.0428 16.8479L12.4513 15.2565H12.4514ZM18.0074 18.8161L16.8434 19.9801C16.7796 20.0439 16.6759 20.0438 16.6122 19.9801L14.2085 17.5764C14.1458 17.5137 14.1458 17.4078 14.2085 17.3451L15.3725 16.1811C15.4038 16.1497 15.446 16.1341 15.4881 16.1341C15.5302 16.1341 15.5724 16.1497 15.6037 16.1811L18.0074 18.5848C18.038 18.6154 18.0548 18.6564 18.0548 18.7004C18.0548 18.7444 18.038 18.7855 18.0074 18.8161V18.8161ZM14.0313 2.03665C14.0313 1.90723 14.1363 1.80227 14.2657 1.80227H15.0248V1.04313C15.0248 0.913716 15.1298 0.808755 15.2592 0.808755C15.3886 0.808755 15.4936 0.913716 15.4936 1.04313V1.80231H16.2528C16.3822 1.80231 16.4871 1.90727 16.4871 2.03668C16.4871 2.1661 16.3822 2.27106 16.2528 2.27106H15.4936V3.0302C15.4936 3.15961 15.3886 3.26458 15.2592 3.26458C15.1298 3.26458 15.0248 3.15961 15.0248 3.0302V2.27106H14.2657C14.1363 2.27106 14.0313 2.16606 14.0313 2.03665ZM3.18957 2.03665C3.18957 1.90723 3.29453 1.80227 3.42394 1.80227H4.18308V1.04309C4.18308 0.913677 4.28804 0.808716 4.41746 0.808716C4.54687 0.808716 4.65183 0.913677 4.65183 1.04309V1.80227H5.41101C5.54043 1.80227 5.64539 1.90723 5.64539 2.03665C5.64539 2.16606 5.54043 2.27102 5.41101 2.27102H4.65183V3.03016C4.65183 3.15958 4.54687 3.26454 4.41746 3.26454C4.28804 3.26454 4.18308 3.15958 4.18308 3.03016V2.27102H3.42394C3.29453 2.27102 3.18957 2.16606 3.18957 2.03665ZM16.4445 10.012C16.5739 10.012 16.6789 10.117 16.6789 10.2464V11.0056H17.438C17.5675 11.0056 17.6724 11.1105 17.6724 11.2399C17.6724 11.3693 17.5675 11.4743 17.438 11.4743H16.6789V12.2335C16.6789 12.3629 16.5739 12.4679 16.4445 12.4679C16.3151 12.4679 16.2101 12.3629 16.2101 12.2335V11.4743H15.451C15.3216 11.4743 15.2166 11.3693 15.2166 11.2399C15.2166 11.1105 15.3216 11.0056 15.451 11.0056H16.2101V10.2464C16.2101 10.117 16.3151 10.012 16.4445 10.012ZM5.88051 7.77571L4.39812 9.43145C4.38914 9.44149 4.38144 9.45231 4.37445 9.46348C4.37219 9.46708 4.37035 9.47075 4.36832 9.47442C4.36394 9.48235 4.36 9.49036 4.35656 9.49868C4.35484 9.50286 4.35316 9.50704 4.35168 9.51129C4.34863 9.52016 4.34621 9.52915 4.34426 9.53829C4.34351 9.54172 4.3425 9.54508 4.34191 9.54856C4.33976 9.5611 4.33859 9.57375 4.33851 9.58649C4.33851 9.58899 4.3389 9.59145 4.33894 9.59395C4.33922 9.60418 4.34008 9.61438 4.34168 9.62458C4.34238 9.62895 4.3434 9.63321 4.34433 9.63758C4.34613 9.6459 4.3484 9.65411 4.35113 9.66227C4.35265 9.66684 4.35422 9.67137 4.35605 9.67586C4.35707 9.67836 4.35769 9.68094 4.35879 9.68344C4.36148 9.6895 4.36496 9.69504 4.36812 9.70083C4.36996 9.70418 4.37152 9.70762 4.37355 9.7109C4.38054 9.72219 4.38836 9.73282 4.39703 9.74262C4.39746 9.74309 4.39773 9.74368 4.39816 9.74415L7.98535 13.7508C7.99097 13.7571 7.99687 13.763 8.00308 13.7686C8.005 13.7703 8.00711 13.7718 8.00906 13.7734C8.01097 13.775 8.01293 13.7766 8.01492 13.7782C8.01742 13.7801 8.01976 13.7823 8.0223 13.7841C8.02636 13.7871 8.03066 13.7897 8.03492 13.7923C8.03761 13.794 8.04019 13.7959 8.04293 13.7975C8.04355 13.7978 8.04422 13.7982 8.04484 13.7985C8.04496 13.7986 8.04504 13.7987 8.04515 13.7988C8.04593 13.7992 8.04676 13.7995 8.04754 13.7999C8.05039 13.8015 8.05332 13.8028 8.05621 13.8043C8.0591 13.8057 8.06187 13.8073 8.0648 13.8086C8.06648 13.8093 8.0682 13.8099 8.06988 13.8106C8.07273 13.8118 8.07558 13.8128 8.07844 13.8138C8.08156 13.815 8.08457 13.8163 8.08773 13.8173C8.09047 13.8182 8.09324 13.8188 8.09597 13.8196C8.09918 13.8205 8.10238 13.8214 8.10562 13.8222C8.10754 13.8227 8.10941 13.8233 8.11136 13.8237C8.11543 13.8245 8.11957 13.825 8.12371 13.8257C8.12672 13.8261 8.12969 13.8268 8.13269 13.8271C8.13367 13.8272 8.13461 13.8274 8.13555 13.8275C8.14226 13.8282 8.14902 13.8284 8.15578 13.8286C8.15699 13.8286 8.15816 13.8288 8.15933 13.8288H8.15984H8.16004C8.16004 13.8288 8.16039 13.8288 8.16054 13.8288C8.16176 13.8288 8.16293 13.8286 8.16414 13.8286C8.1709 13.8285 8.17765 13.8282 8.18433 13.8275C8.18531 13.8274 8.18625 13.8272 8.18719 13.8272C8.19019 13.8268 8.19312 13.8262 8.19613 13.8257H8.19633C8.20039 13.8251 8.20449 13.8246 8.20851 13.8238C8.21047 13.8233 8.21234 13.8227 8.21429 13.8223C8.2175 13.8215 8.2207 13.8206 8.2239 13.8197C8.22664 13.8189 8.22945 13.8183 8.23219 13.8174C8.23535 13.8164 8.2384 13.815 8.24152 13.8139C8.24437 13.8129 8.24722 13.8118 8.25004 13.8107C8.25172 13.81 8.25343 13.8094 8.25511 13.8087C8.25804 13.8074 8.26078 13.8058 8.26367 13.8044C8.2666 13.8029 8.26957 13.8015 8.27246 13.8C8.27324 13.7995 8.27402 13.7993 8.2748 13.7988C8.27492 13.7988 8.275 13.7987 8.27512 13.7986C8.27574 13.7982 8.2764 13.7979 8.27703 13.7975C8.27965 13.796 8.28207 13.7943 8.28461 13.7927C8.28898 13.7899 8.29344 13.7872 8.29765 13.7841C8.30019 13.7823 8.30254 13.7802 8.305 13.7782C8.30695 13.7766 8.3089 13.7751 8.31082 13.7735C8.31281 13.7718 8.31492 13.7704 8.31683 13.7686C8.32301 13.763 8.32894 13.7571 8.33453 13.7509L11.9217 9.74422C11.9221 9.74375 11.9224 9.74321 11.9228 9.74274C11.9315 9.7329 11.9393 9.72227 11.9463 9.71094C11.9483 9.70778 11.9498 9.70446 11.9516 9.70122C11.9548 9.69536 11.9583 9.68973 11.9611 9.68356C11.9622 9.68106 11.9628 9.6784 11.9638 9.67586C11.9656 9.67145 11.9671 9.66704 11.9686 9.66254C11.9714 9.6543 11.9737 9.64598 11.9755 9.63758C11.9764 9.63333 11.9774 9.62911 11.9781 9.62481C11.9798 9.61454 11.9806 9.60422 11.9809 9.59387C11.981 9.59145 11.9813 9.58903 11.9813 9.58661C11.9812 9.57383 11.9801 9.56118 11.9779 9.5486C11.9773 9.54516 11.9763 9.5418 11.9756 9.5384C11.9736 9.52926 11.9712 9.52024 11.9681 9.51137C11.9666 9.50711 11.965 9.50293 11.9632 9.49875C11.9598 9.49047 11.9559 9.48243 11.9515 9.4745C11.9495 9.47082 11.9476 9.46715 11.9453 9.46356C11.9384 9.45239 11.9307 9.44157 11.9217 9.43153L10.4393 7.77579C10.3948 7.72614 10.3313 7.69774 10.2647 7.69774H6.05504C5.98836 7.69774 5.92488 7.72614 5.88043 7.77579L5.88051 7.77571ZM5.09719 9.82215H6.77453L7.62984 12.6509L5.09719 9.82215ZM8.15996 12.7846L7.26426 9.82215H9.0557L8.15996 12.7846ZM8.69008 12.6509L9.54539 9.82215H11.2227L8.69008 12.6509ZM10.16 8.16641L11.2227 9.3534H9.55621L9.27144 8.16641H10.16ZM7.53051 8.16641H8.78937L9.07414 9.3534H7.24578L7.53054 8.16641H7.53051ZM7.04847 8.16641L6.76371 9.3534H5.09719L6.15988 8.16641H7.04847Z" stroke="black" stroke-width="0.21" mask="url(#path-1-outside-1_460_9)"/>
</g>
<defs>
<clipPath id="clip0_460_9">
<rect width="20" height="20" fill="white" transform="translate(0 0.652588)"/>
</clipPath>
</defs>
</svg>
