<svg width="22" height="22" viewBox="0 0 22 22" fill="none" xmlns="http://www.w3.org/2000/svg">
<path d="M2.80076 2.85327C5.3339 0.31928 9.44131 0.31935 11.9746 2.85327C13.0142 3.89291 13.6704 5.25458 13.8349 6.71558C13.9964 8.15009 13.6732 9.59564 12.9209 10.8259L14.5146 12.4197C14.7752 12.3247 15.0572 12.302 15.3301 12.3562C15.625 12.4148 15.8959 12.5604 16.1084 12.7732L20.6543 17.3191C20.7954 17.46 20.9079 17.627 20.9844 17.8113C21.0608 17.9956 21.0996 18.1938 21.0996 18.3933C21.0995 18.5927 21.0607 18.7902 20.9844 18.9744C20.9079 19.1587 20.7955 19.3265 20.6543 19.4675L20.6533 19.4666L19.415 20.7068C19.274 20.8479 19.1071 20.9605 18.9228 21.0369C18.7387 21.1132 18.5411 21.152 18.3418 21.1521C18.1422 21.1521 17.9441 21.1133 17.7597 21.0369C17.5755 20.9605 17.4085 20.8479 17.2676 20.7068L12.7207 16.1599C12.5079 15.9477 12.3623 15.6774 12.3037 15.3826C12.2494 15.1097 12.2721 14.8277 12.3672 14.5671L10.7734 12.9734C9.54313 13.7257 8.09757 14.049 6.66306 13.8875C5.20207 13.7229 3.8404 13.0667 2.80076 12.0271C0.266818 9.49392 0.266764 5.38651 2.80076 2.85327ZM15.0351 13.0271C14.9277 13.0271 14.8209 13.0485 14.7217 13.0896C14.6225 13.1307 14.5319 13.1914 14.456 13.2673H14.4551L13.2148 14.5076C13.1389 14.5835 13.0782 14.674 13.0371 14.7732C12.996 14.8724 12.9746 14.9793 12.9746 15.0867C12.9746 15.1941 12.9959 15.3009 13.0371 15.4001C13.068 15.4747 13.11 15.5441 13.1611 15.6062L13.2148 15.6658L17.7627 20.2126C17.8386 20.2886 17.9291 20.3492 18.0283 20.3904C18.1276 20.4315 18.2343 20.4529 18.3418 20.4529C18.4492 20.4528 18.556 20.4315 18.6553 20.3904C18.7545 20.3492 18.8449 20.2887 18.9209 20.2126L20.1601 18.9724L20.2138 18.9128C20.2649 18.8507 20.3069 18.7813 20.3379 18.7068C20.379 18.6075 20.4003 18.5008 20.4004 18.3933C20.4004 18.2859 20.379 18.1791 20.3379 18.0798C20.2967 17.9806 20.2361 17.8902 20.1601 17.8142L15.6142 13.2673C15.5383 13.1913 15.4479 13.1308 15.3486 13.0896C15.2494 13.0484 15.1426 13.0272 15.0351 13.0271ZM12.5176 11.4109C12.1811 11.8441 11.7915 12.2326 11.3584 12.5691L12.7607 13.9714L13.9199 12.8132L12.5176 11.4109ZM7.38572 1.64624C6.62508 1.64564 5.87179 1.79494 5.16892 2.08569C4.46592 2.37656 3.82701 2.80359 3.28904 3.34155C2.75108 3.87952 2.32404 4.51844 2.03318 5.22144C1.74243 5.9243 1.59313 6.6776 1.59373 7.43823C1.59433 8.19903 1.7451 8.95249 2.03709 9.65503C2.32907 10.3575 2.75615 10.9959 3.2949 11.533H3.29588C5.28872 13.5264 8.37602 13.7614 10.6269 12.238C11.2403 11.8217 11.7691 11.2928 12.1855 10.6794C13.7089 8.42751 13.4739 5.3411 11.4804 3.34839L11.4541 3.32202C10.9225 2.79542 10.2937 2.3769 9.60252 2.0896C8.89998 1.79761 8.14652 1.64685 7.38572 1.64624Z" fill="black" stroke="black" stroke-width="0.2"/>
<path d="M7.47655 3.44556C7.58909 3.44553 7.69946 3.47512 7.79686 3.53149C7.89432 3.58795 7.97522 3.66913 8.03123 3.76685L9.94725 7.11841L9.95213 7.1272L9.95311 7.13208C10.0036 7.22545 10.0312 7.32952 10.0312 7.43579C10.0312 7.54688 10.0022 7.65663 9.94725 7.75317L8.03221 11.1047H8.03123C7.9753 11.2025 7.89525 11.2845 7.79784 11.3411C7.7004 11.3976 7.58919 11.427 7.47655 11.427C7.36408 11.427 7.25358 11.3974 7.15623 11.3411C7.05883 11.2846 6.97787 11.2033 6.92186 11.1057L5.00682 7.75317H5.00584C4.95103 7.65679 4.9229 7.54764 4.92284 7.43677C4.92284 7.33545 4.94723 7.23575 4.99315 7.14575V7.14185L5.00291 7.12622C5.00411 7.12407 5.00462 7.12153 5.00584 7.11938H5.00682L6.92186 3.76685L6.96776 3.69653C7.01855 3.62995 7.08238 3.57384 7.15526 3.53149C7.25269 3.47496 7.3639 3.4456 7.47655 3.44556ZM5.65331 7.43579L7.47655 10.6262L9.29393 7.44556L7.47557 4.24438L5.65331 7.43579Z" fill="black" stroke="black" stroke-width="0.2"/>
</svg>
