<svg width="20" height="21" viewBox="0 0 20 21" fill="none" xmlns="http://www.w3.org/2000/svg">
<path d="M5.22086 0.718018H14.7794C14.9472 0.71814 15.1009 0.813 15.1759 0.963135L16.8595 4.33911V4.34106C16.8605 4.34425 16.8623 4.3482 16.8644 4.35278V4.35376C16.9278 4.49236 16.9109 4.66471 16.8244 4.79224L16.7834 4.84302L10.3214 11.5842C10.2221 11.6655 10.1173 11.7238 10.0002 11.7239C9.88234 11.7239 9.77724 11.6665 9.67789 11.5852L3.2189 4.84595C3.07844 4.67828 3.07982 4.47231 3.14078 4.33618L3.1398 4.33521L4.82437 0.963135C4.89949 0.812924 5.05299 0.718018 5.22086 0.718018ZM11.8146 4.97974L8.18472 4.98071H8.09097L8.12418 5.0686L9.93961 9.86646L10.0002 10.0276L10.0607 9.86646L11.8752 5.06763L11.9084 4.97974H11.8146ZM4.68082 5.08911L8.59488 9.17407L8.7023 9.10571L7.15738 5.02173L7.14175 4.97974H4.57535L4.68082 5.08911ZM12.8419 5.02173L11.297 9.10571L11.4044 9.17407L15.3185 5.08911L15.424 4.97974H12.8576L12.8419 5.02173ZM5.47769 1.63989L4.29996 3.99829L4.25308 4.09302H7.08414L7.0939 4.04028L7.55972 1.68188L7.57437 1.60376H5.49527L5.47769 1.63989ZM8.46793 1.65649L8.00308 4.01489L7.98843 4.09302H12.0109L11.9962 4.01489L11.5314 1.65649L11.5216 1.60376H8.47769L8.46793 1.65649ZM12.4406 1.68188L12.9044 4.04028L12.9152 4.09302H15.7462L15.6994 3.99829L14.5226 1.63989L14.505 1.60376H12.4259L12.4406 1.68188Z" fill="#232323" stroke="white" stroke-width="0.13"/>
<path d="M1.15459 12.5781H4.62431C4.86906 12.5782 5.06767 12.7767 5.06767 13.0215V13.29H10.5745C11.4723 13.29 12.2044 13.9805 12.2854 14.8584L12.2923 14.9268L12.3597 14.917L17.6888 14.1416H17.6897C18.515 14.0124 19.2894 14.692 19.2894 15.5264C19.2893 16.0538 18.9985 16.5301 18.5296 16.7705L13.2659 19.4785C12.7607 19.7381 12.1933 19.8749 11.6263 19.875H5.06767V20.1445C5.06746 20.3891 4.86893 20.5878 4.62431 20.5879H1.15459C0.909932 20.5879 0.711445 20.3891 0.711227 20.1445V13.0215C0.711227 12.7767 0.909798 12.5781 1.15459 12.5781ZM1.59795 19.7002H4.18095V13.4648H1.59795V19.7002ZM5.06767 18.9883H11.6263C12.0534 18.9882 12.4807 18.8846 12.8606 18.6895L18.1243 15.9824C18.2958 15.8947 18.4025 15.7196 18.4026 15.5273C18.4026 15.36 18.3469 15.2212 18.2405 15.1299C18.1346 15.039 17.9871 15.0027 17.8196 15.0195H17.8167L12.1077 15.8506L12.0774 15.8555L12.0608 15.8818C11.7605 16.3955 11.2095 16.7451 10.5745 16.7451H7.83818C7.59355 16.7451 7.39507 16.5463 7.39482 16.3018C7.39482 16.057 7.59339 15.8574 7.83818 15.8574H10.5745C11.0374 15.8574 11.4151 15.4811 11.4153 15.0176C11.4153 14.5539 11.0376 14.1768 10.5745 14.1768H5.06767V18.9883Z" fill="#232323" stroke="white" stroke-width="0.13"/>
</svg>
