<svg width="26" height="21" viewBox="0 0 26 21" fill="none" xmlns="http://www.w3.org/2000/svg">
<path d="M5.3211 1.0417L0.873597 7.15701C0.724662 7.36341 0.743841 7.67409 0.917016 7.86064L12.5917 20.6472C12.7992 20.8717 13.2008 20.8717 13.4083 20.6472L25.083 7.86064C25.2561 7.67409 25.2753 7.36341 25.1264 7.15701L20.6789 1.0417C20.5751 0.901074 20.4019 0.814487 20.2272 0.815849H5.7728C5.57697 0.809455 5.42081 0.906967 5.3211 1.0417ZM6.58933 1.92772H11.8186L8.27452 6.26232L6.58933 1.92772ZM14.1727 1.92772H19.4106L17.7255 6.27099L14.1727 1.92772ZM13 2.24911L16.8307 6.93116H9.16924L13 2.24911ZM20.3748 2.50974L23.5802 6.93116H18.6636L20.3748 2.50974ZM5.61644 2.51836L7.33637 6.93111H2.4198L5.61644 2.51836ZM2.59353 8.04299H7.762L11.6015 17.9195L2.59353 8.04299ZM8.96077 8.04299H17.0392L13 18.4494L8.96077 8.04299ZM18.2293 8.04299H23.4064L14.4072 17.9022L18.2293 8.04299Z" fill="#232323"/>
</svg>
