<svg width="18" height="15" viewBox="0 0 18 15" fill="none" xmlns="http://www.w3.org/2000/svg">
<path d="M3.82478 0.810891L0.711527 5.09161C0.607272 5.23609 0.620698 5.45357 0.74192 5.58415L8.91421 14.5347C9.05946 14.6919 9.34055 14.6919 9.4858 14.5347L17.6581 5.58415C17.7793 5.45357 17.7927 5.23609 17.6885 5.09161L14.5752 0.810891C14.5026 0.712453 14.3813 0.651842 14.259 0.652796H4.14097C4.00389 0.64832 3.89457 0.716579 3.82478 0.810891ZM4.71254 1.43111H8.37304L5.89217 4.46532L4.71254 1.43111ZM10.0209 1.43111H13.6875L12.5078 4.47139L10.0209 1.43111ZM9.2 1.65608L11.8815 4.93352H6.51848L9.2 1.65608ZM14.3624 1.83852L16.6061 4.93352H13.1645L14.3624 1.83852ZM4.03152 1.84455L5.23547 4.93348H1.79387L4.03152 1.84455ZM1.91548 5.71179H5.53341L8.22104 12.6254L1.91548 5.71179ZM6.37255 5.71179H12.0275L9.2 12.9963L6.37255 5.71179ZM12.8605 5.71179H16.4845L10.1851 12.6132L12.8605 5.71179Z" fill="#232323"/>
</svg>
