<svg width="92" height="90" viewBox="0 0 92 90" fill="none" xmlns="http://www.w3.org/2000/svg">
<path opacity="0.6" d="M25.6 83.3C21.6 83.3 18.0333 81.9333 14.9 79.2C11.8333 76.4667 9.43333 72.6333 7.7 67.7C6.03333 62.7667 5.2 57.1 5.2 50.7C5.2 44.3667 6.06667 38.7667 7.8 33.9C9.53333 28.9667 11.9333 25.1333 15 22.4C18.1333 19.6667 21.7333 18.3 25.8 18.3C29.7333 18.3 33.2 19.6667 36.2 22.4C39.2667 25.1333 41.6333 29 43.3 34C44.9667 38.9333 45.8 44.6 45.8 51C45.8 57.3333 44.9333 62.9667 43.2 67.9C41.5333 72.7667 39.1667 76.5667 36.1 79.3C33.0333 81.9667 29.5333 83.3 25.6 83.3ZM26.8 81.9C30.8 81.9 33.8 79.3333 35.8 74.2C37.8 69 38.8 61.6667 38.8 52.2C38.8 45 38.1667 38.9667 36.9 34.1C35.7 29.2333 34.0333 25.6 31.9 23.2C29.8333 20.8 27.4333 19.6 24.7 19.6C20.7 19.6 17.6 22.3333 15.4 27.8C13.2667 33.2667 12.2 40.6667 12.2 50C12.2 59.8 13.5 67.5667 16.1 73.3C18.7 79.0333 22.2667 81.9 26.8 81.9ZM83.2211 73.9C83.2211 75.9667 83.3878 77.4667 83.7211 78.4C84.0544 79.3333 84.7211 79.9667 85.7211 80.3C86.7211 80.6333 88.3211 80.8 90.5211 80.8C90.6544 80.8 90.7211 81 90.7211 81.4C90.7211 81.8 90.6544 82 90.5211 82C88.7878 82 87.4211 81.9667 86.4211 81.9L80.1211 81.8L72.6211 81.9C71.3544 81.9667 69.6211 82 67.4211 82C67.2211 82 67.1211 81.8 67.1211 81.4C67.1211 81 67.2211 80.8 67.4211 80.8C70.5544 80.8 72.7544 80.6667 74.0211 80.4C75.2878 80.0667 76.1211 79.4667 76.5211 78.6C76.9878 77.6667 77.2211 76.1 77.2211 73.9V27.5L79.6211 25.7L56.2211 60C55.9544 60.4667 56.1211 60.7 56.7211 60.7C68.7211 60.7 80.3211 60.5 91.5211 60.1C91.7878 60.1 91.9211 60.8 91.9211 62.2C91.9211 63.6 91.7878 64.3 91.5211 64.3C81.7211 63.8333 68.5211 63.6 51.9211 63.6C51.5878 63.6 51.3211 63.5 51.1211 63.3C50.9878 63.0333 51.0211 62.7667 51.2211 62.5L81.6211 19C81.7544 18.8667 81.9544 18.8 82.2211 18.8C82.8878 18.8 83.2211 19 83.2211 19.4V73.9Z" fill="#232323"/>
<line x1="13" y1="1" x2="85.0069" y2="1" stroke="#7B7B7B"/>
</svg>
