<svg width="92" height="90" viewBox="0 0 92 90" fill="none" xmlns="http://www.w3.org/2000/svg">
<path opacity="0.6" d="M25.6 83.3C21.6 83.3 18.0333 81.9333 14.9 79.2C11.8333 76.4667 9.43333 72.6333 7.7 67.7C6.03333 62.7667 5.2 57.1 5.2 50.7C5.2 44.3667 6.06667 38.7667 7.8 33.9C9.53333 28.9667 11.9333 25.1333 15 22.4C18.1333 19.6667 21.7333 18.3 25.8 18.3C29.7333 18.3 33.2 19.6667 36.2 22.4C39.2667 25.1333 41.6333 29 43.3 34C44.9667 38.9333 45.8 44.6 45.8 51C45.8 57.3333 44.9333 62.9667 43.2 67.9C41.5333 72.7667 39.1667 76.5667 36.1 79.3C33.0333 81.9667 29.5333 83.3 25.6 83.3ZM26.8 81.9C30.8 81.9 33.8 79.3333 35.8 74.2C37.8 69 38.8 61.6667 38.8 52.2C38.8 45 38.1667 38.9667 36.9 34.1C35.7 29.2333 34.0333 25.6 31.9 23.2C29.8333 20.8 27.4333 19.6 24.7 19.6C20.7 19.6 17.6 22.3333 15.4 27.8C13.2667 33.2667 12.2 40.6667 12.2 50C12.2 59.8 13.5 67.5667 16.1 73.3C18.7 79.0333 22.2667 81.9 26.8 81.9ZM57.4211 82C57.2211 82 57.1211 81.8 57.1211 81.4C57.1211 81 57.2211 80.8 57.4211 80.8C61.1544 80.8 63.9544 80.6333 65.8211 80.3C67.6878 79.9 68.9878 79.2333 69.7211 78.3C70.4544 77.3667 70.8211 75.9 70.8211 73.9V32.7C70.8211 30.9667 70.6544 29.7 70.3211 28.9C69.9878 28.1 69.3544 27.7 68.4211 27.7C66.4878 27.7 62.5544 29.8333 56.6211 34.1C56.5544 34.1667 56.4544 34.2 56.3211 34.2C56.1211 34.2 55.9544 34.0667 55.8211 33.8C55.6878 33.4667 55.7211 33.2333 55.9211 33.1L75.4211 18.8C75.7544 18.6 75.9878 18.5 76.1211 18.5C76.2544 18.5 76.3878 18.5667 76.5211 18.7C76.6544 18.8333 76.7211 18.9667 76.7211 19.1V73.9C76.7211 75.9 77.0544 77.4 77.7211 78.4C78.3878 79.3333 79.6211 79.9667 81.4211 80.3C83.2878 80.6333 86.2211 80.8 90.2211 80.8C90.3544 80.8 90.4211 81 90.4211 81.4C90.4211 81.8 90.3544 82 90.2211 82C87.2878 82 84.9878 81.9667 83.3211 81.9L73.8211 81.8L64.3211 81.9C62.6544 81.9667 60.3544 82 57.4211 82Z" fill="#232323"/>
<line x1="13" y1="1" x2="85.0069" y2="1" stroke="#7B7B7B"/>
</svg>
