<svg width="92" height="90" viewBox="0 0 92 90" fill="none" xmlns="http://www.w3.org/2000/svg">
<path opacity="0.6" d="M25.6 83.3C21.6 83.3 18.0333 81.9333 14.9 79.2C11.8333 76.4667 9.43333 72.6333 7.7 67.7C6.03333 62.7667 5.2 57.1 5.2 50.7C5.2 44.3667 6.06667 38.7667 7.8 33.9C9.53333 28.9667 11.9333 25.1333 15 22.4C18.1333 19.6667 21.7333 18.3 25.8 18.3C29.7333 18.3 33.2 19.6667 36.2 22.4C39.2667 25.1333 41.6333 29 43.3 34C44.9667 38.9333 45.8 44.6 45.8 51C45.8 57.3333 44.9333 62.9667 43.2 67.9C41.5333 72.7667 39.1667 76.5667 36.1 79.3C33.0333 81.9667 29.5333 83.3 25.6 83.3ZM26.8 81.9C30.8 81.9 33.8 79.3333 35.8 74.2C37.8 69 38.8 61.6667 38.8 52.2C38.8 45 38.1667 38.9667 36.9 34.1C35.7 29.2333 34.0333 25.6 31.9 23.2C29.8333 20.8 27.4333 19.6 24.7 19.6C20.7 19.6 17.6 22.3333 15.4 27.8C13.2667 33.2667 12.2 40.6667 12.2 50C12.2 59.8 13.5 67.5667 16.1 73.3C18.7 79.0333 22.2667 81.9 26.8 81.9ZM71.1211 83.2C64.9211 83.2 59.5211 80.7 54.9211 75.7L54.8211 75.5C54.8211 75.2333 54.9544 75.0333 55.2211 74.9C55.5544 74.7 55.7878 74.7 55.9211 74.9C57.6544 76.7667 59.7211 78.1667 62.1211 79.1C64.5878 80.0333 67.0544 80.5 69.5211 80.5C74.0544 80.5 77.4211 79.1 79.6211 76.3C81.8211 73.4333 82.9211 69.7333 82.9211 65.2C82.9211 54.8 76.8544 49.6 64.7211 49.6C64.6544 49.6 64.5544 49.5333 64.4211 49.4C64.3544 49.2 64.3211 49 64.3211 48.8C64.3211 48.6 64.3544 48.4333 64.4211 48.3C64.5544 48.1 64.6544 48 64.7211 48C70.5878 48 74.7544 46.8333 77.2211 44.5C79.6878 42.1667 80.9211 38.9333 80.9211 34.8C80.9211 30.8 79.9211 27.7333 77.9211 25.6C75.9211 23.4 73.1211 22.3 69.5211 22.3C66.7211 22.3 64.0544 23 61.5211 24.4C59.0544 25.7333 57.2211 27.7 56.0211 30.3C56.0211 30.3667 55.9544 30.4 55.8211 30.4C55.6211 30.4 55.3878 30.3333 55.1211 30.2C54.9211 30.0667 54.8544 29.9333 54.9211 29.8C56.4544 26.2 58.7211 23.4 61.7211 21.4C64.7211 19.4 68.2211 18.4 72.2211 18.4C76.9544 18.4 80.6544 19.7333 83.3211 22.4C85.9878 25 87.3211 28.2667 87.3211 32.2C87.3211 36.1333 85.9878 39.7 83.3211 42.9C80.6544 46.1 77.1211 48.1667 72.7211 49.1L73.0211 48.3C76.5544 48.0333 79.5878 48.6 82.1211 50C84.7211 51.4 86.6544 53.4 87.9211 56C89.2544 58.5333 89.9211 61.3667 89.9211 64.5C89.9211 68.1667 89.1211 71.4333 87.5211 74.3C85.9211 77.1 83.6878 79.3 80.8211 80.9C77.9544 82.4333 74.7211 83.2 71.1211 83.2Z" fill="#232323"/>
<line x1="13" y1="1" x2="85.0069" y2="1" stroke="#7B7B7B"/>
</svg>
