<svg width="92" height="90" viewBox="0 0 92 90" fill="none" xmlns="http://www.w3.org/2000/svg">
<path opacity="0.6" d="M25.6 83.3C21.6 83.3 18.0333 81.9333 14.9 79.2C11.8333 76.4667 9.43333 72.6333 7.7 67.7C6.03333 62.7667 5.2 57.1 5.2 50.7C5.2 44.3667 6.06667 38.7667 7.8 33.9C9.53333 28.9667 11.9333 25.1333 15 22.4C18.1333 19.6667 21.7333 18.3 25.8 18.3C29.7333 18.3 33.2 19.6667 36.2 22.4C39.2667 25.1333 41.6333 29 43.3 34C44.9667 38.9333 45.8 44.6 45.8 51C45.8 57.3333 44.9333 62.9667 43.2 67.9C41.5333 72.7667 39.1667 76.5667 36.1 79.3C33.0333 81.9667 29.5333 83.3 25.6 83.3ZM26.8 81.9C30.8 81.9 33.8 79.3333 35.8 74.2C37.8 69 38.8 61.6667 38.8 52.2C38.8 45 38.1667 38.9667 36.9 34.1C35.7 29.2333 34.0333 25.6 31.9 23.2C29.8333 20.8 27.4333 19.6 24.7 19.6C20.7 19.6 17.6 22.3333 15.4 27.8C13.2667 33.2667 12.2 40.6667 12.2 50C12.2 59.8 13.5 67.5667 16.1 73.3C18.7 79.0333 22.2667 81.9 26.8 81.9ZM54.0211 82C53.6878 82 53.3878 81.8333 53.1211 81.5C52.9211 81.1667 52.9544 80.9 53.2211 80.7L58.9211 73.6C63.7211 67.7333 67.5544 62.8667 70.4211 59C73.2878 55.0667 75.6878 51.0667 77.6211 47C79.5544 42.8667 80.5211 38.9 80.5211 35.1C80.5211 31.2333 79.4878 28.2 77.4211 26C75.3544 23.7333 72.4544 22.6 68.7211 22.6C65.3878 22.6 62.5544 23.5667 60.2211 25.5C57.8878 27.3667 56.1544 30.0667 55.0211 33.6C55.0211 33.6667 54.8878 33.7 54.6211 33.7C54.0878 33.7 53.8544 33.5667 53.9211 33.3C54.8544 28.5667 56.8878 24.9 60.0211 22.3C63.1544 19.7 67.0211 18.4 71.6211 18.4C76.4211 18.4 80.1878 19.8 82.9211 22.6C85.7211 25.3333 87.1211 28.8667 87.1211 33.2C87.1211 37.0667 86.0544 41.0667 83.9211 45.2C81.7878 49.3333 79.3211 53.1333 76.5211 56.6C73.7211 60.0667 70.2544 64.0667 66.1211 68.6C65.5211 69.2667 64.4544 70.4333 62.9211 72.1C61.4544 73.7 60.3544 75.0333 59.6211 76.1C59.2878 76.5667 59.4211 76.8 60.0211 76.8C68.6878 76.8 74.8211 76.7 78.4211 76.5C82.0211 76.2333 84.5544 75.6333 86.0211 74.7C87.4878 73.7 88.2544 72.1 88.3211 69.9C88.3211 69.7667 88.4878 69.7 88.8211 69.7C89.2211 69.7 89.4211 69.7667 89.4211 69.9L89.3211 80.9C89.3211 81.1667 89.2211 81.4333 89.0211 81.7C88.8878 81.9 88.6878 82 88.4211 82H54.0211Z" fill="#232323"/>
<line x1="13" y1="1" x2="85.0069" y2="1" stroke="#7B7B7B"/>
</svg>
