<svg width="40" height="42" viewBox="0 0 40 42" fill="none" xmlns="http://www.w3.org/2000/svg">
<rect width="39.375" height="42" fill="black" fill-opacity="0.1"/>
<path d="M21.875 24.0773V17.9227C21.875 14.4826 21.875 12.7626 20.8629 12.3345C19.8509 11.9065 18.6598 13.1227 16.2775 15.5552C15.0439 16.8149 14.34 17.0939 12.5847 17.0939C11.0497 17.0939 10.2822 17.0939 9.73082 17.47C8.58632 18.2509 8.75932 19.7772 8.75932 21C8.75932 22.2228 8.58632 23.7491 9.73082 24.53C10.2822 24.9061 11.0497 24.9061 12.5847 24.9061C14.34 24.9061 15.0439 25.1851 16.2775 26.4448C18.6598 28.8773 19.8509 30.0935 20.8629 29.6655C21.875 29.2374 21.875 27.5174 21.875 24.0773Z" stroke="#FAFAFA" stroke-width="1.64062" stroke-linecap="round" stroke-linejoin="round"/>
<path d="M26.25 18.8125L30.625 23.1875M26.25 23.1875L30.625 18.8125" stroke="#FAFAFA" stroke-width="1.64062" stroke-linecap="round"/>
</svg>
