<svg width="27" height="28" viewBox="0 0 27 28" fill="none" xmlns="http://www.w3.org/2000/svg">
<path d="M7.25 8.25781C7.25 6.63368 7.25 5.82161 7.53832 5.31705C7.82663 4.8125 8.29067 4.8125 9.21875 4.8125C10.1468 4.8125 10.6109 4.8125 10.8992 5.31705C11.1875 5.82161 11.1875 6.63368 11.1875 8.25781V19.7422C11.1875 21.3663 11.1875 22.1784 10.8992 22.6829C10.6109 23.1875 10.1468 23.1875 9.21875 23.1875C8.29067 23.1875 7.82663 23.1875 7.53832 22.6829C7.25 22.1784 7.25 21.3663 7.25 19.7422V8.25781Z" fill="white"/>
<path d="M16.4375 8.25781C16.4375 6.63368 16.4375 5.82161 16.7258 5.31705C17.0141 4.8125 17.4782 4.8125 18.4062 4.8125C19.3343 4.8125 19.7984 4.8125 20.0867 5.31705C20.375 5.82161 20.375 6.63368 20.375 8.25781V19.7422C20.375 21.3663 20.375 22.1784 20.0867 22.6829C19.7984 23.1875 19.3343 23.1875 18.4062 23.1875C17.4782 23.1875 17.0141 23.1875 16.7258 22.6829C16.4375 22.1784 16.4375 21.3663 16.4375 19.7422V8.25781Z" fill="white"/>
</svg>
