<svg width="40" height="42" viewBox="0 0 40 42" fill="none" xmlns="http://www.w3.org/2000/svg">
<rect width="39.375" height="42" fill="black" fill-opacity="0.1"/>
<path d="M13.125 15.2578C13.125 13.6337 13.125 12.8216 13.4133 12.3171C13.7016 11.8125 14.1657 11.8125 15.0938 11.8125C16.0218 11.8125 16.4859 11.8125 16.7742 12.3171C17.0625 12.8216 17.0625 13.6337 17.0625 15.2578V26.7422C17.0625 28.3663 17.0625 29.1784 16.7742 29.6829C16.4859 30.1875 16.0218 30.1875 15.0938 30.1875C14.1657 30.1875 13.7016 30.1875 13.4133 29.6829C13.125 29.1784 13.125 28.3663 13.125 26.7422V15.2578Z" fill="white"/>
<path d="M22.3125 15.2578C22.3125 13.6337 22.3125 12.8216 22.6008 12.3171C22.8891 11.8125 23.3532 11.8125 24.2812 11.8125C25.2093 11.8125 25.6734 11.8125 25.9617 12.3171C26.25 12.8216 26.25 13.6337 26.25 15.2578V26.7422C26.25 28.3663 26.25 29.1784 25.9617 29.6829C25.6734 30.1875 25.2093 30.1875 24.2812 30.1875C23.3532 30.1875 22.8891 30.1875 22.6008 29.6829C22.3125 29.1784 22.3125 28.3663 22.3125 26.7422V15.2578Z" fill="white"/>
</svg>
