<svg width="104" height="104" viewBox="0 0 104 104" fill="none" xmlns="http://www.w3.org/2000/svg">
<rect x="20.7461" y="20.3799" width="63.75" height="63.75" rx="31.875" fill="white"/>
<g clip-path="url(#clip0_0_241)">
<path d="M57.4196 50.9047C57.6646 51.035 57.8695 51.2294 58.0123 51.4673C58.1552 51.7051 58.2307 51.9773 58.2307 52.2547C58.2307 52.5321 58.1552 52.8043 58.0123 53.0421C57.8695 53.28 57.6646 53.4744 57.4196 53.6047L50.8855 57.1578C49.8334 57.7306 48.541 56.986 48.541 55.8084V48.7015C48.541 47.5234 49.8334 46.7793 50.8855 47.351L57.4196 50.9047Z" fill="black"/>
</g>
<rect x="1" y="1.25488" width="102" height="102" rx="51" stroke="white" stroke-opacity="0.25" stroke-width="0.8"/>
<path d="M103 52C103 63.7991 98.9088 75.2332 91.4235 84.3541C83.9383 93.4749 73.522 99.7182 61.9496 102.02C50.3772 104.322 38.3647 102.54 27.9588 96.978C17.5529 91.4159 9.39747 82.4178 4.88215 71.5169C0.366817 60.6159 -0.229061 48.4865 3.19604 37.1955C6.62114 25.9044 13.8553 16.1503 23.6659 9.59505C33.4765 3.03981 45.2566 0.0890639 56.9989 1.24558C68.7412 2.40209 79.7192 7.59431 88.0624 15.9375" stroke="white" stroke-width="1.2"/>
<defs>
<clipPath id="clip0_0_241">
<rect width="12.24" height="12.24" fill="white" transform="translate(46.501 46.135)"/>
</clipPath>
</defs>
</svg>
