<svg width="17" height="21" viewBox="0 0 17 21" fill="none" xmlns="http://www.w3.org/2000/svg">
<path d="M13.3298 15.8933C13.1157 15.8933 12.9419 15.7193 12.9419 15.5051C12.9419 15.291 13.1157 15.1172 13.3298 15.1172H13.8267V14.6204C13.8267 14.4062 14.0004 14.2322 14.2149 14.2322C14.429 14.2322 14.6028 14.4062 14.6028 14.6204V15.1172H15.0991C15.3133 15.1172 15.487 15.291 15.487 15.5051C15.487 15.7193 15.3133 15.8933 15.0991 15.8933H14.6028V16.3896C14.6028 16.6038 14.429 16.7775 14.2149 16.7775C14.0004 16.7775 13.8267 16.6038 13.8267 16.3896V15.8933H13.3298ZM3.32682 7.4446C3.11265 7.4446 2.93863 7.27058 2.93863 7.05641C2.93863 6.84224 3.11265 6.66823 3.32682 6.66823H3.8234V6.17217C3.8234 5.958 3.99715 5.78399 4.21132 5.78399C4.42549 5.78399 4.5995 5.958 4.5995 6.17217V6.66823H5.09635C5.31052 6.66823 5.48453 6.84224 5.48453 7.05641C5.48453 7.27058 5.31052 7.4446 5.09635 7.4446H4.5995V7.94118C4.5995 8.15535 4.42549 8.32936 4.21132 8.32936C3.99715 8.32936 3.8234 8.15535 3.8234 7.94118V7.4446H3.32682ZM7.76062 1.45308L7.56482 0.815552L7.36902 1.45308C7.237 1.8822 7.01601 2.25202 6.72074 2.54729C6.42573 2.8423 6.05592 3.06355 5.62679 3.19531L4.98926 3.39085L5.62679 3.58691C6.05565 3.7184 6.42573 3.93966 6.72074 4.23467C7.01601 4.52994 7.23726 4.90001 7.36902 5.32888L7.56482 5.96614L7.76062 5.32888C7.89159 4.90132 8.11284 4.53204 8.40838 4.23624C8.70549 3.9394 9.07504 3.71814 9.50259 3.58691L10.1404 3.39085L9.50259 3.19531C9.07372 3.06355 8.70365 2.8423 8.40838 2.54676C8.11311 2.25149 7.89211 1.88168 7.76062 1.45308ZM6.74042 12.2645L6.16038 10.3763L5.58059 12.2645C5.37325 12.9411 5.02391 13.5243 4.55751 13.991C4.08927 14.4592 3.50556 14.8083 2.82919 15.0162L0.941284 15.5959L2.82919 16.176C3.50687 16.3841 4.09111 16.7332 4.55725 17.1993C5.02364 17.6655 5.37272 18.2497 5.58059 18.9274L6.16038 20.8156L6.74042 18.9274C6.94488 18.2615 7.28713 17.6844 7.74434 17.2206L7.76403 17.1993C8.23017 16.7332 8.81415 16.3841 9.49183 16.176L11.38 15.5959L9.49183 15.0162C8.8257 14.8112 8.24906 14.4694 7.78503 14.0122L7.76377 13.9925C7.29763 13.5261 6.94829 12.9422 6.74042 12.2645ZM12.4078 6.01811L11.9957 4.67692L11.5839 6.01811C11.4094 6.58713 11.1162 7.07741 10.7246 7.46901C10.3312 7.8606 9.84143 8.15378 9.27372 8.32831L7.93253 8.74012L9.27372 9.15193C9.83119 9.32305 10.3141 9.60914 10.7031 9.99155L10.7246 10.0115C11.1162 10.4031 11.4094 10.8936 11.5839 11.4624L11.9957 12.8036L12.4078 11.4624C12.5789 10.9049 12.865 10.422 13.2469 10.0333L13.2668 10.0115C13.6584 9.62016 14.149 9.32673 14.718 9.15193L16.0587 8.74012L14.718 8.32831C14.149 8.15351 13.6587 7.86034 13.2671 7.46875C12.8755 7.07715 12.5823 6.58713 12.4078 6.01811Z" fill="black"/>
</svg>
