<svg width="17" height="22" viewBox="0 0 17 22" fill="none" xmlns="http://www.w3.org/2000/svg">
<mask id="path-1-outside-1_472_32" maskUnits="userSpaceOnUse" x="-0.609901" y="0.0524902" width="17" height="22" fill="black">
<rect fill="white" x="-0.609901" y="0.0524902" width="17" height="22"/>
<path d="M5.12643 21.0525C5.06334 21.0525 5.00191 21.0322 4.95118 20.9947C4.90044 20.9572 4.86306 20.9045 4.84452 20.8442L4.19942 18.7433C4.0939 18.3879 3.90253 18.064 3.64219 17.8001C3.37838 17.5399 3.05458 17.3487 2.69936 17.2432L0.598409 16.5978C0.538096 16.5793 0.485317 16.5419 0.447824 16.4911C0.410331 16.4404 0.390099 16.379 0.390099 16.3159C0.390099 16.2528 0.410331 16.1913 0.447824 16.1406C0.485317 16.0898 0.538096 16.0524 0.598409 16.0339L2.69929 15.3887C3.05484 15.2832 3.37892 15.0918 3.64291 14.8313C3.90288 14.5674 4.094 14.2436 4.19945 13.8885L4.84459 11.7876C4.86314 11.7273 4.90054 11.6745 4.9513 11.637C5.00205 11.5995 5.06349 11.5793 5.12658 11.5793C5.18968 11.5793 5.25112 11.5995 5.30187 11.637C5.35263 11.6745 5.39002 11.7273 5.40858 11.7876L6.05389 13.8885C6.15767 14.2445 6.34953 14.5686 6.61173 14.8308C6.87392 15.093 7.19799 15.2849 7.55398 15.3887L9.6549 16.0339C9.71522 16.0524 9.76801 16.0898 9.80552 16.1406C9.84302 16.1913 9.86326 16.2528 9.86326 16.3159C9.86326 16.379 9.84302 16.4404 9.80552 16.4912C9.76801 16.5419 9.71522 16.5793 9.6549 16.5979L7.55398 17.2432C7.20015 17.3476 6.87769 17.5381 6.61539 17.7975C6.37711 18.0203 6.16719 18.3739 6.05371 18.7433L5.40834 20.8442C5.3895 20.9043 5.35204 20.9569 5.30137 20.9944C5.25069 21.0318 5.18943 21.0521 5.12643 21.0525ZM5.12643 12.8794L4.76341 14.0621C4.63264 14.5108 4.39085 14.9192 4.06038 15.2497C3.72992 15.5801 3.32146 15.8219 2.87279 15.9526L1.6901 16.3158L2.87276 16.6792C3.31997 16.8123 3.72739 17.0537 4.05883 17.3821C4.38794 17.714 4.62999 18.122 4.76347 18.5698L5.1265 19.7525L5.4899 18.57C5.62082 18.1322 5.85509 17.7322 6.17294 17.4039C6.46495 17.0893 6.90516 16.825 7.38065 16.6792L8.56331 16.3158L7.38055 15.9526C6.93187 15.8219 6.5234 15.5801 6.19293 15.2496C5.86246 14.9192 5.62066 14.5107 5.4899 14.062L5.12643 12.8794ZM12.0588 12.8967C11.9958 12.8966 11.9343 12.8764 11.8836 12.8389C11.8329 12.8014 11.7955 12.7486 11.7769 12.6883L11.2459 10.9591C11.1629 10.6742 11.0093 10.415 10.7996 10.2051C10.5898 9.99532 10.3305 9.84176 10.0457 9.75863L8.31614 9.22758C8.25585 9.20901 8.2031 9.17161 8.16563 9.12085C8.12816 9.0701 8.10794 9.00868 8.10794 8.94559C8.10794 8.88251 8.12816 8.82108 8.16563 8.77033C8.2031 8.71958 8.25585 8.68217 8.31614 8.6636L10.0457 8.13259C10.3304 8.04945 10.5896 7.89592 10.7994 7.68616C11.0091 7.4764 11.1627 7.21718 11.2458 6.93242L11.7769 5.20284C11.7954 5.14253 11.8328 5.08976 11.8836 5.05227C11.9343 5.01478 11.9958 4.99455 12.0589 4.99455C12.122 4.99455 12.1834 5.01478 12.2341 5.05227C12.2849 5.08976 12.3223 5.14253 12.3409 5.20284L12.8721 6.93236C12.9545 7.21751 13.1078 7.47714 13.3176 7.68701C13.5275 7.89689 13.7871 8.05015 14.0723 8.13249L15.8016 8.66353C15.8619 8.68208 15.9147 8.71948 15.9522 8.77024C15.9897 8.82099 16.0099 8.88243 16.0099 8.94552C16.0099 9.00862 15.9897 9.07006 15.9522 9.12081C15.9147 9.17156 15.8619 9.20896 15.8016 9.22752L14.0724 9.75853C13.7893 9.84225 13.5313 9.9947 13.3214 10.2023C13.1268 10.3865 12.9631 10.6623 12.8722 10.9589L12.3409 12.6883C12.3221 12.7484 12.2846 12.801 12.2339 12.8385C12.1832 12.8759 12.1219 12.8962 12.0588 12.8965V12.8967ZM12.0588 6.29487L11.8101 7.10579C11.7 7.48328 11.4965 7.82693 11.2185 8.10498C10.9404 8.38302 10.5968 8.58649 10.2193 8.69658L9.40838 8.94557L10.2193 9.19454C10.5968 9.30461 10.9405 9.50811 11.2185 9.78621C11.4966 10.0643 11.7 10.408 11.8101 10.7856L12.0589 11.5965L12.3084 10.7856C12.4276 10.3972 12.5879 10.1264 12.8997 9.7863C13.1789 9.50962 13.5223 9.3063 13.8991 9.19447L14.71 8.94547L13.8992 8.69651C13.5216 8.58655 13.1778 8.38312 12.8998 8.10503C12.6217 7.82695 12.4182 7.4832 12.3083 7.10561L12.0588 6.29477V6.29487ZM6.48727 6.93284C6.42419 6.93279 6.36278 6.91254 6.31205 6.87505C6.26131 6.83755 6.22393 6.78479 6.20537 6.7245L5.82126 5.47327C5.76484 5.28005 5.66065 5.10417 5.51831 4.96186C5.37596 4.81955 5.20005 4.71541 5.00682 4.65904L3.75569 4.27452C3.69538 4.25596 3.64261 4.21856 3.60513 4.16781C3.56764 4.11706 3.54741 4.05562 3.54741 3.99252C3.54741 3.92943 3.56764 3.86799 3.60513 3.81724C3.64261 3.76648 3.69538 3.72908 3.75569 3.71053L5.00655 3.32645C5.19981 3.27012 5.37576 3.16598 5.51814 3.02366C5.66052 2.88134 5.76473 2.70543 5.82115 2.51219L6.2053 1.26086C6.22383 1.20053 6.26122 1.14774 6.31198 1.11023C6.36274 1.07273 6.42418 1.05249 6.48729 1.05249C6.5504 1.05249 6.61185 1.07273 6.6626 1.11023C6.71336 1.14774 6.75075 1.20053 6.76929 1.26086L7.15371 2.51209C7.20934 2.70567 7.31324 2.88194 7.45566 3.02436C7.59808 3.16678 7.77435 3.27068 7.96793 3.32631L9.21927 3.71046C9.27958 3.72901 9.33235 3.76641 9.36984 3.81717C9.40732 3.86792 9.42755 3.92936 9.42755 3.99245C9.42755 4.05555 9.40732 4.11699 9.36984 4.16774C9.33235 4.2185 9.27958 4.25589 9.21927 4.27445L7.968 4.65887C7.77444 4.71451 7.59819 4.81841 7.45578 4.96082C7.31337 5.10322 7.20946 5.27947 7.15381 5.47303L6.76935 6.72453C6.75052 6.7847 6.71304 6.8373 6.66233 6.87475C6.61162 6.9122 6.55031 6.93254 6.48727 6.93284ZM6.48758 2.4298L6.34275 2.81002C6.25475 3.04757 6.11641 3.26329 5.93724 3.44238C5.75806 3.62148 5.54228 3.75971 5.30468 3.84761L4.92405 3.99233L5.30455 4.13741C5.5422 4.22541 5.75802 4.36375 5.93722 4.54294C6.11641 4.72214 6.25475 4.93796 6.34275 5.17561L6.48748 5.55631L6.63245 5.17561C6.72089 4.93825 6.85936 4.72269 7.03846 4.54356C7.21756 4.36443 7.4331 4.22592 7.67045 4.13744L8.05036 3.9924L7.67031 3.84768C7.43303 3.75928 7.21754 3.62086 7.03848 3.44181C6.85942 3.26277 6.72098 3.0473 6.63255 2.81002L6.48758 2.4298Z"/>
</mask>
<path d="M5.12643 21.0525C5.06334 21.0525 5.00191 21.0322 4.95118 20.9947C4.90044 20.9572 4.86306 20.9045 4.84452 20.8442L4.19942 18.7433C4.0939 18.3879 3.90253 18.064 3.64219 17.8001C3.37838 17.5399 3.05458 17.3487 2.69936 17.2432L0.598409 16.5978C0.538096 16.5793 0.485317 16.5419 0.447824 16.4911C0.410331 16.4404 0.390099 16.379 0.390099 16.3159C0.390099 16.2528 0.410331 16.1913 0.447824 16.1406C0.485317 16.0898 0.538096 16.0524 0.598409 16.0339L2.69929 15.3887C3.05484 15.2832 3.37892 15.0918 3.64291 14.8313C3.90288 14.5674 4.094 14.2436 4.19945 13.8885L4.84459 11.7876C4.86314 11.7273 4.90054 11.6745 4.9513 11.637C5.00205 11.5995 5.06349 11.5793 5.12658 11.5793C5.18968 11.5793 5.25112 11.5995 5.30187 11.637C5.35263 11.6745 5.39002 11.7273 5.40858 11.7876L6.05389 13.8885C6.15767 14.2445 6.34953 14.5686 6.61173 14.8308C6.87392 15.093 7.19799 15.2849 7.55398 15.3887L9.6549 16.0339C9.71522 16.0524 9.76801 16.0898 9.80552 16.1406C9.84302 16.1913 9.86326 16.2528 9.86326 16.3159C9.86326 16.379 9.84302 16.4404 9.80552 16.4912C9.76801 16.5419 9.71522 16.5793 9.6549 16.5979L7.55398 17.2432C7.20015 17.3476 6.87769 17.5381 6.61539 17.7975C6.37711 18.0203 6.16719 18.3739 6.05371 18.7433L5.40834 20.8442C5.3895 20.9043 5.35204 20.9569 5.30137 20.9944C5.25069 21.0318 5.18943 21.0521 5.12643 21.0525ZM5.12643 12.8794L4.76341 14.0621C4.63264 14.5108 4.39085 14.9192 4.06038 15.2497C3.72992 15.5801 3.32146 15.8219 2.87279 15.9526L1.6901 16.3158L2.87276 16.6792C3.31997 16.8123 3.72739 17.0537 4.05883 17.3821C4.38794 17.714 4.62999 18.122 4.76347 18.5698L5.1265 19.7525L5.4899 18.57C5.62082 18.1322 5.85509 17.7322 6.17294 17.4039C6.46495 17.0893 6.90516 16.825 7.38065 16.6792L8.56331 16.3158L7.38055 15.9526C6.93187 15.8219 6.5234 15.5801 6.19293 15.2496C5.86246 14.9192 5.62066 14.5107 5.4899 14.062L5.12643 12.8794ZM12.0588 12.8967C11.9958 12.8966 11.9343 12.8764 11.8836 12.8389C11.8329 12.8014 11.7955 12.7486 11.7769 12.6883L11.2459 10.9591C11.1629 10.6742 11.0093 10.415 10.7996 10.2051C10.5898 9.99532 10.3305 9.84176 10.0457 9.75863L8.31614 9.22758C8.25585 9.20901 8.2031 9.17161 8.16563 9.12085C8.12816 9.0701 8.10794 9.00868 8.10794 8.94559C8.10794 8.88251 8.12816 8.82108 8.16563 8.77033C8.2031 8.71958 8.25585 8.68217 8.31614 8.6636L10.0457 8.13259C10.3304 8.04945 10.5896 7.89592 10.7994 7.68616C11.0091 7.4764 11.1627 7.21718 11.2458 6.93242L11.7769 5.20284C11.7954 5.14253 11.8328 5.08976 11.8836 5.05227C11.9343 5.01478 11.9958 4.99455 12.0589 4.99455C12.122 4.99455 12.1834 5.01478 12.2341 5.05227C12.2849 5.08976 12.3223 5.14253 12.3409 5.20284L12.8721 6.93236C12.9545 7.21751 13.1078 7.47714 13.3176 7.68701C13.5275 7.89689 13.7871 8.05015 14.0723 8.13249L15.8016 8.66353C15.8619 8.68208 15.9147 8.71948 15.9522 8.77024C15.9897 8.82099 16.0099 8.88243 16.0099 8.94552C16.0099 9.00862 15.9897 9.07006 15.9522 9.12081C15.9147 9.17156 15.8619 9.20896 15.8016 9.22752L14.0724 9.75853C13.7893 9.84225 13.5313 9.9947 13.3214 10.2023C13.1268 10.3865 12.9631 10.6623 12.8722 10.9589L12.3409 12.6883C12.3221 12.7484 12.2846 12.801 12.2339 12.8385C12.1832 12.8759 12.1219 12.8962 12.0588 12.8965V12.8967ZM12.0588 6.29487L11.8101 7.10579C11.7 7.48328 11.4965 7.82693 11.2185 8.10498C10.9404 8.38302 10.5968 8.58649 10.2193 8.69658L9.40838 8.94557L10.2193 9.19454C10.5968 9.30461 10.9405 9.50811 11.2185 9.78621C11.4966 10.0643 11.7 10.408 11.8101 10.7856L12.0589 11.5965L12.3084 10.7856C12.4276 10.3972 12.5879 10.1264 12.8997 9.7863C13.1789 9.50962 13.5223 9.3063 13.8991 9.19447L14.71 8.94547L13.8992 8.69651C13.5216 8.58655 13.1778 8.38312 12.8998 8.10503C12.6217 7.82695 12.4182 7.4832 12.3083 7.10561L12.0588 6.29477V6.29487ZM6.48727 6.93284C6.42419 6.93279 6.36278 6.91254 6.31205 6.87505C6.26131 6.83755 6.22393 6.78479 6.20537 6.7245L5.82126 5.47327C5.76484 5.28005 5.66065 5.10417 5.51831 4.96186C5.37596 4.81955 5.20005 4.71541 5.00682 4.65904L3.75569 4.27452C3.69538 4.25596 3.64261 4.21856 3.60513 4.16781C3.56764 4.11706 3.54741 4.05562 3.54741 3.99252C3.54741 3.92943 3.56764 3.86799 3.60513 3.81724C3.64261 3.76648 3.69538 3.72908 3.75569 3.71053L5.00655 3.32645C5.19981 3.27012 5.37576 3.16598 5.51814 3.02366C5.66052 2.88134 5.76473 2.70543 5.82115 2.51219L6.2053 1.26086C6.22383 1.20053 6.26122 1.14774 6.31198 1.11023C6.36274 1.07273 6.42418 1.05249 6.48729 1.05249C6.5504 1.05249 6.61185 1.07273 6.6626 1.11023C6.71336 1.14774 6.75075 1.20053 6.76929 1.26086L7.15371 2.51209C7.20934 2.70567 7.31324 2.88194 7.45566 3.02436C7.59808 3.16678 7.77435 3.27068 7.96793 3.32631L9.21927 3.71046C9.27958 3.72901 9.33235 3.76641 9.36984 3.81717C9.40732 3.86792 9.42755 3.92936 9.42755 3.99245C9.42755 4.05555 9.40732 4.11699 9.36984 4.16774C9.33235 4.2185 9.27958 4.25589 9.21927 4.27445L7.968 4.65887C7.77444 4.71451 7.59819 4.81841 7.45578 4.96082C7.31337 5.10322 7.20946 5.27947 7.15381 5.47303L6.76935 6.72453C6.75052 6.7847 6.71304 6.8373 6.66233 6.87475C6.61162 6.9122 6.55031 6.93254 6.48727 6.93284ZM6.48758 2.4298L6.34275 2.81002C6.25475 3.04757 6.11641 3.26329 5.93724 3.44238C5.75806 3.62148 5.54228 3.75971 5.30468 3.84761L4.92405 3.99233L5.30455 4.13741C5.5422 4.22541 5.75802 4.36375 5.93722 4.54294C6.11641 4.72214 6.25475 4.93796 6.34275 5.17561L6.48748 5.55631L6.63245 5.17561C6.72089 4.93825 6.85936 4.72269 7.03846 4.54356C7.21756 4.36443 7.4331 4.22592 7.67045 4.13744L8.05036 3.9924L7.67031 3.84768C7.43303 3.75928 7.21754 3.62086 7.03848 3.44181C6.85942 3.26277 6.72098 3.0473 6.63255 2.81002L6.48758 2.4298Z" fill="black"/>
<path d="M5.12643 21.0525C5.06334 21.0525 5.00191 21.0322 4.95118 20.9947C4.90044 20.9572 4.86306 20.9045 4.84452 20.8442L4.19942 18.7433C4.0939 18.3879 3.90253 18.064 3.64219 17.8001C3.37838 17.5399 3.05458 17.3487 2.69936 17.2432L0.598409 16.5978C0.538096 16.5793 0.485317 16.5419 0.447824 16.4911C0.410331 16.4404 0.390099 16.379 0.390099 16.3159C0.390099 16.2528 0.410331 16.1913 0.447824 16.1406C0.485317 16.0898 0.538096 16.0524 0.598409 16.0339L2.69929 15.3887C3.05484 15.2832 3.37892 15.0918 3.64291 14.8313C3.90288 14.5674 4.094 14.2436 4.19945 13.8885L4.84459 11.7876C4.86314 11.7273 4.90054 11.6745 4.9513 11.637C5.00205 11.5995 5.06349 11.5793 5.12658 11.5793C5.18968 11.5793 5.25112 11.5995 5.30187 11.637C5.35263 11.6745 5.39002 11.7273 5.40858 11.7876L6.05389 13.8885C6.15767 14.2445 6.34953 14.5686 6.61173 14.8308C6.87392 15.093 7.19799 15.2849 7.55398 15.3887L9.6549 16.0339C9.71522 16.0524 9.76801 16.0898 9.80552 16.1406C9.84302 16.1913 9.86326 16.2528 9.86326 16.3159C9.86326 16.379 9.84302 16.4404 9.80552 16.4912C9.76801 16.5419 9.71522 16.5793 9.6549 16.5979L7.55398 17.2432C7.20015 17.3476 6.87769 17.5381 6.61539 17.7975C6.37711 18.0203 6.16719 18.3739 6.05371 18.7433L5.40834 20.8442C5.3895 20.9043 5.35204 20.9569 5.30137 20.9944C5.25069 21.0318 5.18943 21.0521 5.12643 21.0525ZM5.12643 12.8794L4.76341 14.0621C4.63264 14.5108 4.39085 14.9192 4.06038 15.2497C3.72992 15.5801 3.32146 15.8219 2.87279 15.9526L1.6901 16.3158L2.87276 16.6792C3.31997 16.8123 3.72739 17.0537 4.05883 17.3821C4.38794 17.714 4.62999 18.122 4.76347 18.5698L5.1265 19.7525L5.4899 18.57C5.62082 18.1322 5.85509 17.7322 6.17294 17.4039C6.46495 17.0893 6.90516 16.825 7.38065 16.6792L8.56331 16.3158L7.38055 15.9526C6.93187 15.8219 6.5234 15.5801 6.19293 15.2496C5.86246 14.9192 5.62066 14.5107 5.4899 14.062L5.12643 12.8794ZM12.0588 12.8967C11.9958 12.8966 11.9343 12.8764 11.8836 12.8389C11.8329 12.8014 11.7955 12.7486 11.7769 12.6883L11.2459 10.9591C11.1629 10.6742 11.0093 10.415 10.7996 10.2051C10.5898 9.99532 10.3305 9.84176 10.0457 9.75863L8.31614 9.22758C8.25585 9.20901 8.2031 9.17161 8.16563 9.12085C8.12816 9.0701 8.10794 9.00868 8.10794 8.94559C8.10794 8.88251 8.12816 8.82108 8.16563 8.77033C8.2031 8.71958 8.25585 8.68217 8.31614 8.6636L10.0457 8.13259C10.3304 8.04945 10.5896 7.89592 10.7994 7.68616C11.0091 7.4764 11.1627 7.21718 11.2458 6.93242L11.7769 5.20284C11.7954 5.14253 11.8328 5.08976 11.8836 5.05227C11.9343 5.01478 11.9958 4.99455 12.0589 4.99455C12.122 4.99455 12.1834 5.01478 12.2341 5.05227C12.2849 5.08976 12.3223 5.14253 12.3409 5.20284L12.8721 6.93236C12.9545 7.21751 13.1078 7.47714 13.3176 7.68701C13.5275 7.89689 13.7871 8.05015 14.0723 8.13249L15.8016 8.66353C15.8619 8.68208 15.9147 8.71948 15.9522 8.77024C15.9897 8.82099 16.0099 8.88243 16.0099 8.94552C16.0099 9.00862 15.9897 9.07006 15.9522 9.12081C15.9147 9.17156 15.8619 9.20896 15.8016 9.22752L14.0724 9.75853C13.7893 9.84225 13.5313 9.9947 13.3214 10.2023C13.1268 10.3865 12.9631 10.6623 12.8722 10.9589L12.3409 12.6883C12.3221 12.7484 12.2846 12.801 12.2339 12.8385C12.1832 12.8759 12.1219 12.8962 12.0588 12.8965V12.8967ZM12.0588 6.29487L11.8101 7.10579C11.7 7.48328 11.4965 7.82693 11.2185 8.10498C10.9404 8.38302 10.5968 8.58649 10.2193 8.69658L9.40838 8.94557L10.2193 9.19454C10.5968 9.30461 10.9405 9.50811 11.2185 9.78621C11.4966 10.0643 11.7 10.408 11.8101 10.7856L12.0589 11.5965L12.3084 10.7856C12.4276 10.3972 12.5879 10.1264 12.8997 9.7863C13.1789 9.50962 13.5223 9.3063 13.8991 9.19447L14.71 8.94547L13.8992 8.69651C13.5216 8.58655 13.1778 8.38312 12.8998 8.10503C12.6217 7.82695 12.4182 7.4832 12.3083 7.10561L12.0588 6.29477V6.29487ZM6.48727 6.93284C6.42419 6.93279 6.36278 6.91254 6.31205 6.87505C6.26131 6.83755 6.22393 6.78479 6.20537 6.7245L5.82126 5.47327C5.76484 5.28005 5.66065 5.10417 5.51831 4.96186C5.37596 4.81955 5.20005 4.71541 5.00682 4.65904L3.75569 4.27452C3.69538 4.25596 3.64261 4.21856 3.60513 4.16781C3.56764 4.11706 3.54741 4.05562 3.54741 3.99252C3.54741 3.92943 3.56764 3.86799 3.60513 3.81724C3.64261 3.76648 3.69538 3.72908 3.75569 3.71053L5.00655 3.32645C5.19981 3.27012 5.37576 3.16598 5.51814 3.02366C5.66052 2.88134 5.76473 2.70543 5.82115 2.51219L6.2053 1.26086C6.22383 1.20053 6.26122 1.14774 6.31198 1.11023C6.36274 1.07273 6.42418 1.05249 6.48729 1.05249C6.5504 1.05249 6.61185 1.07273 6.6626 1.11023C6.71336 1.14774 6.75075 1.20053 6.76929 1.26086L7.15371 2.51209C7.20934 2.70567 7.31324 2.88194 7.45566 3.02436C7.59808 3.16678 7.77435 3.27068 7.96793 3.32631L9.21927 3.71046C9.27958 3.72901 9.33235 3.76641 9.36984 3.81717C9.40732 3.86792 9.42755 3.92936 9.42755 3.99245C9.42755 4.05555 9.40732 4.11699 9.36984 4.16774C9.33235 4.2185 9.27958 4.25589 9.21927 4.27445L7.968 4.65887C7.77444 4.71451 7.59819 4.81841 7.45578 4.96082C7.31337 5.10322 7.20946 5.27947 7.15381 5.47303L6.76935 6.72453C6.75052 6.7847 6.71304 6.8373 6.66233 6.87475C6.61162 6.9122 6.55031 6.93254 6.48727 6.93284ZM6.48758 2.4298L6.34275 2.81002C6.25475 3.04757 6.11641 3.26329 5.93724 3.44238C5.75806 3.62148 5.54228 3.75971 5.30468 3.84761L4.92405 3.99233L5.30455 4.13741C5.5422 4.22541 5.75802 4.36375 5.93722 4.54294C6.11641 4.72214 6.25475 4.93796 6.34275 5.17561L6.48748 5.55631L6.63245 5.17561C6.72089 4.93825 6.85936 4.72269 7.03846 4.54356C7.21756 4.36443 7.4331 4.22592 7.67045 4.13744L8.05036 3.9924L7.67031 3.84768C7.43303 3.75928 7.21754 3.62086 7.03848 3.44181C6.85942 3.26277 6.72098 3.0473 6.63255 2.81002L6.48758 2.4298Z" stroke="black" stroke-width="0.4" mask="url(#path-1-outside-1_472_32)"/>
</svg>
