<svg width="40" height="42" viewBox="0 0 40 42" fill="none" xmlns="http://www.w3.org/2000/svg">
<rect width="39.375" height="42" fill="black" fill-opacity="0.1"/>
<path d="M8.4375 18.75V23.25C8.4375 25.5 9.5625 26.625 11.8125 26.625H13.4212C13.8375 26.625 14.2537 26.7488 14.6137 26.9625L17.8987 29.0213C20.7337 30.7988 23.0625 29.505 23.0625 26.1638V15.8363C23.0625 12.4838 20.7337 11.2013 17.8987 12.9788L14.6137 15.0375C14.2537 15.2513 13.8375 15.375 13.4212 15.375H11.8125C9.5625 15.375 8.4375 16.5 8.4375 18.75Z" stroke="white" stroke-width="1.6875"/>
<path d="M26.4375 16.5C28.44 19.1662 28.44 22.8338 26.4375 25.5" stroke="white" stroke-width="1.6875" stroke-linecap="round" stroke-linejoin="round"/>
<path d="M28.4961 13.6875C31.7473 18.0187 31.7473 23.9813 28.4961 28.3125" stroke="white" stroke-width="1.6875" stroke-linecap="round" stroke-linejoin="round"/>
</svg>
