<svg width="24" height="21" viewBox="0 0 24 21" fill="none" xmlns="http://www.w3.org/2000/svg">
<path fill-rule="evenodd" clip-rule="evenodd" d="M16.364 0.885816C16.4853 0.816793 16.6282 0.797074 16.7633 0.833557L19.8111 1.65C19.9462 1.68649 20.0606 1.77424 20.1306 1.89553L20.874 3.1833C21.0101 3.41896 20.944 3.71971 20.7222 3.87649L17.3657 6.24298C17.2375 6.3337 17.0768 6.36229 16.9259 6.32186C16.775 6.28143 16.6508 6.17593 16.5847 6.03395L14.8621 2.30562C14.7477 2.05911 14.8404 1.76528 15.0761 1.62919L16.364 0.885816ZM16.7012 1.90539L16.0179 2.30079L17.2751 5.02017L19.7234 3.29363L19.329 2.60933L16.7012 1.90539Z" fill="black"/>
<path fill-rule="evenodd" clip-rule="evenodd" d="M7.63724 0.885816C7.51695 0.816793 7.37298 0.797074 7.2379 0.833557L4.19012 1.65C4.05601 1.68649 3.94065 1.77424 3.87163 1.89553L3.12718 3.1833C2.9911 3.41896 3.05717 3.71971 3.28001 3.87649L6.63652 6.24298C6.76372 6.3337 6.92443 6.36229 7.07531 6.32186C7.22617 6.28143 7.35141 6.17593 7.41649 6.03395L9.14008 2.30562C9.25445 2.05911 9.16078 1.76528 8.9261 1.62919L7.63724 0.885816ZM7.30003 1.90539L7.98334 2.30079L6.72712 5.02017L4.27879 3.29363L4.67321 2.60933L7.30003 1.90539Z" fill="black"/>
<path fill-rule="evenodd" clip-rule="evenodd" d="M16.9255 6.32201C13.2782 5.34485 9.52918 7.5092 8.55204 11.1555C8.00183 13.2084 8.44653 15.293 9.59231 16.8981L8.73545 17.5095C7.41612 15.6587 6.90143 13.2528 7.53643 10.8833C8.66346 6.67589 12.9893 4.17839 17.1975 5.30522C21.4049 6.43326 23.9024 10.7589 22.7756 14.9663C21.8832 18.2961 18.9902 20.5532 15.7382 20.7938L15.6613 19.7447C18.4804 19.5366 20.987 17.5784 21.7589 14.6941C22.7361 11.0479 20.5717 7.29883 16.9255 6.32169L16.9255 6.32201Z" fill="black"/>
<path fill-rule="evenodd" clip-rule="evenodd" d="M6.80312 5.30546C7.4904 5.12107 8.18258 5.0343 8.86395 5.03529L8.86198 6.0874C8.27234 6.08542 7.67282 6.16135 7.07528 6.32207C3.42798 7.29924 1.26369 11.0472 2.24083 14.6945C3.06121 17.7562 5.83385 19.7736 8.86119 19.7637C9.44001 19.7618 10.0277 19.6858 10.6144 19.5291C14.2607 18.5519 16.4252 14.8029 15.4478 11.1556C15.2023 10.2396 14.7822 9.41722 14.234 8.71515L15.0623 8.06732C15.6963 8.87882 16.1814 9.8284 16.4644 10.8834C17.5914 15.0918 15.0938 19.4176 10.8863 20.5445C10.2118 20.7249 9.53345 20.8127 8.86493 20.8156C5.37237 20.8265 2.17161 18.5004 1.22501 14.9664C0.0969748 10.759 2.59463 6.4333 6.80312 5.30546Z" fill="black"/>
</svg>
